<?xml version="1.0" standalone="no"?>
<!DOCTYPE svg PUBLIC "-//W3C//DTD SVG 20010904//EN"
 "http://www.w3.org/TR/2001/REC-SVG-20010904/DTD/svg10.dtd">
<svg version="1.0" xmlns="http://www.w3.org/2000/svg"
 width="400.000000pt" height="400.000000pt" viewBox="0 0 400.000000 400.000000"
 preserveAspectRatio="xMidYMid meet">
<metadata>
Created by potrace 1.11, written by Peter Selinger 2001-2013
</metadata>
<g transform="translate(0.000000,400.000000) scale(0.100000,-0.100000)"
fill="#000000" stroke="none">
<path d="M3017 3863 c-2 -1 -27 -5 -56 -8 -30 -3 -56 -7 -60 -9 -3 -2 -37 -7
-75 -11 -38 -3 -72 -8 -76 -10 -3 -2 -35 -6 -70 -10 -36 -3 -72 -8 -80 -10 -8
-2 -33 -6 -55 -9 -37 -5 -127 -18 -215 -30 -19 -3 -98 -14 -175 -25 -77 -11
-160 -23 -185 -26 -25 -3 -72 -10 -105 -15 -33 -5 -80 -12 -105 -15 -25 -3
-56 -8 -70 -10 -14 -2 -45 -6 -70 -10 -25 -3 -56 -8 -70 -10 -14 -2 -45 -7
-70 -10 -25 -3 -54 -7 -65 -9 -11 -2 -42 -7 -70 -10 -27 -4 -77 -11 -110 -16
-33 -5 -82 -12 -110 -15 -27 -4 -126 -18 -220 -31 -93 -14 -188 -27 -210 -30
-287 -36 -353 -56 -414 -131 -65 -79 -62 1 -59 -1419 3 -1398 -1 -1286 51
-1369 14 -23 59 -65 70 -65 4 0 7 -6 7 -14 0 -8 4 -18 10 -21 5 -3 7 0 4 9 -5
12 1 12 33 -4 21 -10 41 -16 45 -13 5 2 8 -1 8 -8 0 -7 4 -8 13 -2 14 11 77
11 77 1 0 -5 0 -11 0 -14 0 -4 -8 0 -17 7 -16 13 -17 12 -4 -4 10 -13 17 -15
27 -6 8 6 11 15 8 20 -10 17 9 9 22 -8 12 -17 13 -16 9 4 -4 23 -3 23 28 6 30
-15 31 -15 18 1 -8 9 -11 19 -7 23 3 3 6 1 6 -6 0 -9 5 -9 20 -1 18 10 24 7
21 -12 0 -5 4 -8 9 -8 9 0 13 12 12 30 0 3 19 5 43 5 24 0 41 -3 39 -7 -2 -3
4 -5 13 -3 10 1 25 -2 33 -8 12 -9 13 -9 3 3 -7 8 -13 17 -13 21 0 12 48 3 67
-12 15 -11 14 -9 -1 9 l-20 23 25 -9 c18 -7 27 -5 35 6 9 12 13 12 19 2 5 -8
4 -11 -2 -7 -5 3 -10 0 -10 -8 0 -11 4 -12 13 -4 7 6 18 8 24 4 5 -3 10 -2 10
4 0 5 -6 12 -12 14 -10 4 -9 6 1 6 8 1 20 -7 27 -17 13 -16 14 -16 7 2 -4 13
-3 17 5 12 7 -4 12 -3 12 2 0 10 30 9 48 -2 7 -4 12 -1 12 8 0 9 5 16 11 16 6
0 8 -9 4 -22 -4 -16 -4 -19 3 -9 6 8 15 10 23 5 11 -6 12 -5 2 7 -10 13 -8 15
15 14 16 0 26 -6 24 -14 -1 -7 2 -10 7 -6 6 3 8 12 5 19 -3 8 3 12 18 10 13
-1 23 -3 23 -4 0 -7 35 -6 46 2 11 8 10 9 -4 4 -9 -3 -17 -1 -17 4 0 5 14 8
31 8 20 -1 26 -4 17 -10 -9 -5 -6 -7 9 -5 12 2 26 7 30 12 5 4 1 5 -7 0 -12
-6 -13 -5 -3 5 15 16 46 23 37 9 -3 -5 -10 -6 -16 -3 -7 4 -8 2 -4 -4 4 -6 13
-9 21 -5 9 3 23 -1 33 -8 14 -11 15 -11 5 1 -17 18 -16 27 2 27 8 0 11 -5 8
-10 -3 -5 0 -7 8 -5 8 3 13 11 11 17 -1 7 2 10 8 6 6 -3 8 -10 5 -15 -3 -5 0
-12 6 -16 8 -5 9 -3 4 6 -6 10 -3 12 12 8 12 -3 27 -1 34 4 10 7 9 8 -6 3 -14
-4 -17 -3 -9 5 14 14 56 22 49 9 -4 -5 -11 -7 -16 -4 -5 3 -6 -1 -2 -10 4 -12
8 -13 13 -5 4 7 13 10 19 6 7 -5 9 -1 5 8 -3 9 -1 16 5 16 6 0 11 -4 11 -8 0
-5 7 -9 15 -9 10 0 12 4 5 12 -8 9 -1 11 26 8 19 -2 33 0 30 5 -7 11 57 10 65
-1 4 -5 15 -4 25 3 17 10 17 11 1 6 -11 -3 -16 -2 -12 4 7 11 46 7 67 -6 7 -5
9 -2 6 7 -4 10 3 14 26 13 17 0 38 5 46 10 13 10 13 9 1 -6 -7 -10 -17 -15
-22 -12 -5 3 -17 1 -26 -5 -14 -8 -10 -9 17 -6 19 2 40 11 46 20 11 15 13 15
17 -2 4 -13 5 -12 6 6 1 23 16 21 16 -2 0 -5 7 -12 15 -14 13 -4 13 -3 0 7
-13 10 -11 11 6 7 12 -2 28 0 35 5 11 8 10 8 -4 4 -10 -3 -15 -2 -12 3 8 14
66 10 59 -3 -3 -6 2 -2 10 8 14 17 16 18 16 3 0 -9 4 -17 9 -17 5 0 7 10 4 23
-6 22 -6 22 14 -2 15 -18 20 -20 20 -8 0 9 -5 13 -11 10 -6 -3 -7 -2 -3 2 10
12 38 15 31 4 -10 -16 8 -9 22 8 12 15 13 15 8 2 -3 -9 1 -19 9 -22 9 -3 14 1
13 11 0 9 4 17 9 17 6 0 15 3 21 7 13 9 24 1 20 -15 -2 -7 -1 -8 2 -4 2 4 11
2 20 -5 15 -11 15 -11 5 3 -7 9 -10 19 -6 22 3 4 12 -1 18 -10 11 -15 13 -15
24 5 6 12 17 22 24 22 7 0 6 -4 -3 -10 -13 -8 -13 -11 -1 -22 11 -11 13 -11 6
1 -6 11 -3 13 14 8 17 -4 20 -2 12 7 -7 8 -5 12 10 13 11 1 17 -2 14 -7 -3 -4
2 -7 11 -6 8 1 19 8 24 15 6 11 9 11 13 0 4 -12 7 -12 18 0 12 12 12 13 0 6
-9 -5 -12 -4 -7 3 7 12 36 5 36 -9 0 -5 4 -9 10 -9 5 0 7 8 3 18 -6 15 -4 15
15 -2 12 -11 25 -16 29 -13 3 4 1 7 -5 7 -17 0 -15 17 4 24 8 3 12 2 9 -4 -9
-14 9 -12 23 2 9 9 15 8 27 -8 14 -19 14 -19 11 1 -3 15 1 21 14 21 14 0 16
-4 9 -12 -7 -8 -6 -15 2 -20 8 -4 9 -3 5 4 -4 7 -1 12 9 12 10 0 13 5 9 12 -4
6 -3 8 4 4 5 -3 12 -3 15 1 2 5 2 3 1 -4 -4 -16 13 -26 21 -13 4 6 15 8 25 5
10 -3 21 -1 24 4 4 5 15 8 26 6 12 -2 18 0 15 6 -4 5 -10 7 -15 4 -5 -3 -11
-1 -15 4 -3 6 5 8 20 5 14 -2 31 -1 37 3 7 3 22 7 35 8 18 0 22 -4 18 -20 -3
-11 -2 -14 1 -7 3 6 13 12 22 13 11 0 12 2 5 6 -21 8 -15 22 7 16 11 -3 17 -9
14 -14 -3 -5 2 -6 10 -3 9 3 13 10 10 15 -3 5 3 6 12 2 13 -5 15 -3 9 7 -5 9
-4 11 4 6 9 -6 9 -11 0 -22 -16 -20 -4 -17 17 3 17 17 28 21 74 28 14 1 25 4
25 5 0 8 42 7 52 -2 12 -10 17 -4 14 15 -1 5 3 6 9 2 6 -3 8 -10 5 -15 -3 -5
0 -12 6 -16 8 -5 9 -3 4 6 -6 10 -4 12 8 7 9 -3 19 -1 23 5 4 6 3 8 -4 4 -6
-3 -13 -2 -17 3 -6 10 27 7 45 -4 15 -9 12 2 -6 19 -8 9 -11 16 -5 16 5 0 13
-5 16 -10 4 -7 11 -6 20 2 44 39 64 50 49 26 -5 -7 -3 -8 5 -3 9 5 10 10 2 18
-8 8 -7 15 3 26 14 15 16 21 16 37 0 4 6 1 14 -5 12 -10 13 -8 8 11 -5 21 -4
22 11 9 15 -12 17 -12 11 3 -3 9 -11 16 -18 16 -7 0 -6 4 3 9 7 5 14 27 14 50
1 27 5 41 14 41 7 0 13 5 13 11 0 5 -4 8 -9 4 -5 -3 -12 -1 -16 5 -3 5 0 10 7
10 10 0 9 3 -2 10 -8 5 -11 12 -7 16 3 4 14 1 23 -7 16 -13 16 -12 3 9 -8 12
-16 22 -19 22 -3 0 -6 27 -6 59 0 33 4 57 8 55 4 -3 8 2 8 10 0 9 -3 16 -8 16
-4 0 -8 13 -8 30 -1 16 2 27 7 24 5 -3 9 2 9 10 0 9 -4 16 -10 16 -5 0 -10 5
-10 11 0 5 4 8 9 5 5 -3 12 1 15 9 3 9 -1 18 -9 22 -13 5 -13 7 2 19 17 13 17
14 -2 7 -17 -6 -18 -5 -7 9 10 13 10 17 0 21 -10 4 -10 7 1 18 12 12 13 12 6
0 -5 -9 -4 -12 3 -7 6 4 9 13 6 21 -4 8 -11 12 -18 8 -6 -4 -4 2 4 12 9 11 10
16 3 11 -7 -4 -13 -2 -13 3 0 6 7 11 15 11 8 0 15 5 15 11 0 5 -4 8 -9 4 -5
-3 -12 -1 -16 5 -3 5 0 10 7 10 10 0 9 3 -2 10 -8 5 -11 12 -7 16 3 4 14 1 23
-7 16 -13 16 -12 3 8 -8 13 -16 23 -19 23 -3 0 -6 27 -6 59 0 33 4 57 8 55 4
-3 8 2 8 10 0 9 -3 16 -8 16 -4 0 -8 13 -8 30 -1 16 2 27 7 24 5 -3 9 2 9 10
0 9 -4 16 -10 16 -5 0 -10 5 -10 11 0 5 4 8 9 5 5 -3 12 1 15 9 3 9 -1 18 -9
22 -13 5 -13 7 2 19 17 13 17 14 -2 7 -17 -6 -18 -5 -7 9 10 13 10 17 0 21
-10 4 -10 7 1 18 12 12 13 12 6 0 -5 -9 -4 -12 3 -7 6 4 9 13 6 21 -4 8 -11
12 -18 8 -6 -4 -4 2 4 12 9 11 10 16 3 11 -7 -4 -13 -2 -13 3 0 6 7 11 15 11
8 0 15 5 15 11 0 5 -4 8 -9 4 -5 -3 -12 -1 -16 5 -3 5 0 10 7 10 10 0 9 3 -2
10 -8 5 -11 12 -7 16 3 4 14 1 23 -7 16 -13 16 -12 3 9 -8 12 -16 22 -19 22
-3 0 -6 27 -6 59 0 33 4 57 8 55 4 -3 8 2 8 10 0 9 -3 16 -8 16 -4 0 -8 13 -8
30 -1 16 2 27 7 24 5 -3 9 2 9 10 0 9 -4 16 -10 16 -5 0 -10 5 -10 11 0 5 4 8
9 5 5 -3 12 1 15 9 3 9 -1 18 -9 22 -13 5 -13 7 2 19 17 13 17 14 -2 7 -17 -6
-18 -5 -7 9 10 13 10 17 0 21 -10 4 -10 7 1 18 12 12 13 12 6 0 -5 -9 -4 -12
3 -7 6 4 9 13 6 21 -4 8 -11 12 -18 8 -6 -4 -4 2 4 12 9 11 10 16 3 11 -7 -4
-13 -2 -13 3 0 6 7 11 15 11 8 0 15 5 15 11 0 5 -4 8 -9 4 -5 -3 -12 -1 -16 5
-3 5 0 10 7 10 10 0 9 3 -2 10 -8 5 -11 12 -7 16 3 4 14 1 23 -7 16 -13 16
-12 3 9 -8 12 -16 22 -20 22 -3 0 -5 18 -5 39 0 22 3 38 7 35 4 -2 10 3 13 11
3 9 -1 18 -9 22 -13 5 -13 7 2 19 17 13 17 14 -2 7 -17 -6 -18 -5 -7 9 10 13
10 17 0 21 -10 4 -10 7 1 18 12 12 13 12 6 0 -5 -9 -4 -12 3 -7 6 4 9 13 6 21
-4 8 -11 12 -18 8 -6 -4 -4 2 4 12 9 11 10 16 3 11 -7 -4 -13 -2 -13 3 0 6 7
11 15 11 8 0 15 5 15 11 0 5 -4 8 -9 4 -5 -3 -12 -1 -16 5 -3 5 0 10 7 10 10
0 9 3 -2 10 -8 5 -11 12 -7 16 3 4 14 1 23 -7 16 -13 16 -12 3 9 -8 12 -16 22
-19 22 -3 0 -6 27 -6 59 0 33 4 57 8 55 4 -3 8 2 8 10 0 9 -3 16 -8 16 -4 0
-8 13 -8 30 -1 16 2 27 7 24 5 -3 9 2 9 10 0 9 -4 16 -10 16 -5 0 -10 5 -10
11 0 5 4 8 9 5 5 -3 12 1 15 9 3 9 -1 18 -9 22 -13 5 -13 7 2 19 17 13 17 14
-2 7 -17 -6 -18 -5 -7 9 10 13 10 17 0 21 -10 4 -10 7 1 18 12 12 13 12 6 0
-5 -9 -4 -12 3 -7 6 4 9 13 6 21 -4 8 -11 12 -18 8 -6 -4 -4 2 4 12 9 11 10
16 3 11 -7 -4 -13 -2 -13 3 0 6 7 11 15 11 8 0 15 5 15 11 0 5 -4 8 -9 4 -5
-3 -12 -1 -16 5 -3 5 0 10 7 10 10 0 9 3 -2 10 -8 5 -11 12 -7 16 3 4 14 1 23
-7 16 -13 16 -12 3 9 -8 12 -16 22 -20 22 -3 0 -5 26 -5 58 0 38 6 61 16 70
13 10 12 11 -4 6 -16 -6 -17 -5 -6 16 8 15 8 20 1 16 -6 -4 -11 -2 -11 3 0 6
6 11 13 11 6 0 4 5 -5 11 -10 5 -18 15 -18 20 0 6 6 7 13 3 9 -6 9 -5 0 8 -7
8 -9 19 -5 23 4 5 1 5 -7 0 -10 -6 -12 -2 -7 16 3 13 3 18 0 11 -8 -16 -24 -5
-24 16 0 17 -44 58 -88 81 -12 7 -20 17 -16 23 4 6 3 8 -3 5 -5 -3 -27 -1 -49
5 -39 10 -92 17 -97 11z m41 -1496 l2 -1237 -22 -9 c-13 -4 -140 -25 -283 -45
-143 -20 -271 -38 -285 -40 -14 -2 -43 -7 -65 -10 -22 -3 -56 -8 -75 -10 -19
-3 -87 -12 -150 -21 -63 -8 -126 -17 -140 -20 -43 -7 -103 -16 -145 -21 -35
-4 -84 -11 -205 -28 -195 -28 -270 -39 -295 -42 -16 -2 -79 -11 -140 -20 -60
-8 -123 -17 -140 -20 -16 -2 -93 -13 -170 -25 -77 -11 -160 -22 -185 -25 -25
-2 -56 -7 -70 -9 -36 -7 -131 -18 -160 -19 -14 -1 -27 -4 -30 -7 -3 -4 -12 0
-20 9 -13 14 -12 15 3 9 9 -3 17 -2 17 3 0 6 -7 10 -15 10 -8 0 -15 5 -15 11
0 5 6 7 13 3 7 -5 6 0 -3 11 -9 11 -10 16 -3 11 7 -4 13 -2 13 3 0 6 -8 12
-17 12 -17 1 -17 2 0 6 9 2 17 9 17 14 0 6 -4 8 -8 5 -5 -3 -9 1 -9 9 0 8 4
12 8 9 9 -5 17 17 11 33 -2 7 -8 11 -12 8 -5 -3 -7 3 -5 12 1 10 -1 23 -6 29
-5 7 -3 11 6 11 8 0 11 -5 8 -10 -4 -6 -1 -7 7 -2 10 6 9 11 -5 22 -14 9 -15
13 -4 13 12 0 12 2 -1 10 -8 5 -11 10 -7 10 4 0 3 8 -2 18 -7 14 -6 19 4 19 7
0 11 -6 9 -12 -3 -7 3 -18 13 -26 16 -13 17 -12 5 3 -8 9 -11 22 -7 28 3 5 -1
13 -10 16 -13 6 -14 8 -3 15 7 5 8 9 3 9 -6 0 -11 9 -12 20 -2 20 -1 20 15 2
9 -10 13 -12 8 -5 -4 7 -6 19 -3 28 4 8 -1 21 -9 30 -9 8 -11 15 -5 15 6 0 11
5 11 11 0 5 -4 7 -10 4 -5 -3 -10 -1 -10 4 0 6 5 11 10 11 6 0 10 5 10 11 0 5
-5 7 -12 3 -6 -4 -8 -3 -4 4 3 5 3 12 -1 15 -5 2 -3 2 4 1 6 -2 14 2 16 9 6
19 -4 38 -17 30 -6 -3 -6 -1 2 8 18 20 15 33 -5 18 -16 -12 -17 -12 -6 2 7 9
9 20 5 24 -4 5 -1 5 6 1 6 -4 12 -2 12 3 0 6 -4 11 -10 11 -5 0 -10 5 -10 11
0 5 4 8 9 5 5 -3 12 1 15 9 4 10 -2 19 -17 25 -21 8 -21 9 -2 11 11 1 24 1 28
0 5 -1 6 3 2 8 -3 6 -11 8 -18 5 -8 -3 -13 3 -13 15 0 11 4 17 8 15 4 -3 8 0
8 5 0 6 -4 11 -10 11 -5 0 -10 5 -10 11 0 5 4 8 9 5 11 -7 20 14 14 31 -3 6
-10 11 -16 9 -7 -1 -9 -1 -4 1 4 3 4 10 1 15 -4 6 -2 8 3 5 6 -4 14 0 17 8 4
10 -2 19 -17 25 l-22 9 22 0 c12 1 24 5 27 10 4 5 -4 7 -16 5 -13 -2 -17 -2
-10 2 6 3 12 10 12 15 0 6 -5 7 -12 3 -6 -4 -8 -3 -4 4 3 5 3 12 -1 15 -5 2
-2 2 5 1 6 -2 12 0 13 4 0 4 2 15 4 24 2 12 -2 15 -13 11 -9 -4 -13 -2 -9 4 4
6 4 13 0 16 -5 2 -2 2 5 1 6 -2 12 1 12 7 0 6 6 7 13 4 6 -4 3 2 -8 12 -20 18
-31 58 -14 47 5 -3 9 0 9 5 0 6 -4 11 -10 11 -5 0 -10 5 -10 11 0 5 4 8 9 5
11 -7 20 14 14 31 -3 6 -10 11 -16 9 -7 -1 -9 -1 -4 1 4 3 4 10 1 15 -4 6 -2
8 3 5 6 -4 14 0 17 8 4 10 -2 19 -17 25 l-22 9 22 0 c12 1 24 5 27 10 4 5 -4
7 -16 5 -13 -2 -17 -2 -10 2 6 3 12 10 12 15 0 6 -5 7 -12 3 -6 -4 -8 -3 -4 4
3 5 3 12 -1 15 -5 2 -2 2 5 1 6 -2 12 0 13 4 0 4 2 15 4 24 2 12 -2 15 -13 11
-9 -4 -13 -2 -9 4 4 6 4 13 0 16 -5 2 -2 2 5 1 6 -2 12 1 12 7 0 6 6 7 13 4 6
-4 3 2 -8 12 -24 22 -35 53 -12 35 12 -10 14 -8 11 14 -1 15 -9 31 -16 35 -10
7 -10 9 0 9 6 0 12 5 12 11 0 5 -4 7 -10 4 -5 -3 -10 -1 -10 4 0 6 5 11 10 11
6 0 10 5 10 11 0 5 -5 7 -12 3 -6 -4 -8 -3 -4 4 3 5 3 12 -1 15 -5 2 -3 2 4 1
6 -2 14 2 16 9 6 19 -4 38 -17 30 -6 -3 -6 -1 2 8 18 20 15 33 -5 18 -16 -12
-17 -12 -6 2 7 9 9 20 5 24 -4 5 -1 5 6 1 6 -4 12 -2 12 3 0 6 -4 11 -10 11
-5 0 -10 5 -10 11 0 5 4 8 9 5 5 -3 12 1 15 9 4 10 -2 19 -17 25 -21 8 -21 9
-2 11 11 1 24 1 28 0 5 -1 6 3 2 8 -3 6 -13 7 -23 4 -9 -3 -14 -3 -10 2 4 4 3
13 -2 20 -7 8 -5 12 5 12 8 0 11 -5 8 -10 -4 -6 -1 -7 7 -2 10 6 9 11 -5 22
-14 9 -15 13 -4 13 12 0 12 2 -1 10 -8 5 -11 10 -7 10 4 0 3 8 -2 18 -7 14 -6
19 4 19 7 0 11 -6 9 -12 -3 -7 3 -18 13 -26 16 -13 17 -12 5 3 -8 9 -11 22 -8
27 4 5 -2 14 -11 20 -14 8 -15 10 -3 11 13 0 13 1 0 10 -8 5 -12 10 -8 10 4 0
4 11 -1 23 -7 17 -6 24 4 24 7 0 10 -8 8 -17 -2 -9 4 -23 14 -31 16 -13 17
-12 5 3 -7 9 -12 22 -11 30 3 24 -1 39 -9 34 -5 -3 -9 1 -9 9 0 8 4 12 9 9 4
-3 8 0 8 5 0 6 -8 12 -17 12 -17 1 -17 2 -1 6 10 2 18 9 18 14 0 6 -4 8 -8 5
-5 -3 -9 1 -9 9 0 8 4 12 8 10 9 -6 17 16 12 33 -3 6 -8 10 -12 8 -4 -3 -8 1
-8 9 0 8 4 12 9 9 4 -3 8 0 8 5 0 6 -8 12 -17 12 -17 1 -17 2 0 6 9 2 17 9 17
14 0 6 -4 8 -8 5 -5 -3 -9 1 -9 9 0 8 4 12 8 9 9 -5 17 17 11 33 -2 7 -8 11
-12 8 -5 -3 -7 3 -5 12 1 10 -1 23 -6 29 -5 7 -3 11 6 11 8 0 11 -5 8 -10 -4
-6 -1 -7 7 -2 10 6 9 11 -5 22 -14 9 -15 13 -4 13 12 0 12 2 -1 10 -8 5 -11
10 -7 10 4 0 3 8 -2 18 -7 14 -6 19 4 19 7 0 11 -6 9 -12 -3 -7 3 -18 13 -26
16 -13 17 -12 5 3 -8 9 -11 22 -7 28 3 5 -1 13 -10 16 -13 6 -14 8 -3 15 7 5
8 9 3 9 -6 0 -11 9 -12 20 -2 20 -1 20 15 2 9 -10 13 -12 8 -5 -4 7 -6 19 -3
28 4 8 -1 21 -9 30 -12 11 -12 15 -2 15 10 0 10 2 1 8 -7 4 -11 16 -9 27 2 11
-2 24 -8 28 -7 6 -4 7 6 3 10 -3 18 -1 18 4 0 6 -5 10 -11 10 -6 0 -3 7 5 16
19 18 19 21 4 30 -6 4 -8 3 -4 -4 3 -6 2 -13 -3 -16 -14 -9 -7 22 9 37 8 7 10
8 7 1 -4 -7 -1 -14 7 -17 8 -3 13 1 12 10 0 9 7 17 17 18 9 2 15 -1 11 -6 -3
-5 -10 -6 -16 -3 -6 4 -8 2 -5 -4 4 -5 16 -8 27 -5 11 3 18 9 15 13 -8 13 16
23 27 12 12 -12 41 -4 32 9 -3 5 2 6 10 3 14 -5 13 -8 -2 -23 -10 -9 -12 -12
-5 -8 6 5 18 5 24 1 8 -4 9 -3 5 4 -4 7 -2 12 4 12 6 0 9 4 5 9 -3 5 0 13 6
17 7 4 9 3 6 -2 -3 -6 -2 -16 4 -24 7 -13 9 -13 9 1 0 12 7 15 26 11 16 -3 25
-1 21 5 -3 5 0 10 8 10 8 0 12 -4 9 -9 -3 -4 -3 -8 0 -8 2 0 13 -3 23 -6 15
-5 15 -4 3 5 -13 9 -13 12 -1 23 10 10 12 10 7 1 -9 -16 -8 -16 45 2 30 11 40
12 31 3 -6 -6 -12 -16 -12 -22 0 -5 9 1 20 14 11 13 20 18 20 12 0 -7 5 -12
11 -12 5 0 8 4 4 9 -3 6 6 8 21 5 17 -3 23 -1 19 7 -6 8 -2 8 13 0 28 -15 32
-14 26 7 -4 12 -3 13 3 4 12 -16 63 -26 63 -12 0 6 -4 8 -10 5 -5 -3 -10 -1
-10 4 0 18 28 13 39 -6 7 -12 10 -14 11 -4 0 11 3 11 17 0 11 -9 14 -10 10 -2
-9 14 34 29 57 20 10 -4 13 -1 10 8 -4 10 2 13 25 10 23 -3 30 -1 24 8 -4 7 1
5 11 -3 22 -17 44 -21 51 -10 3 5 -3 7 -14 5 -11 -2 -22 3 -25 11 -4 11 -2 12
13 5 10 -6 21 -7 25 -4 10 11 37 12 30 2 -3 -5 -10 -7 -15 -4 -5 3 -6 -1 -2
-10 4 -12 8 -13 13 -5 4 7 13 10 19 6 7 -5 9 -1 5 8 -3 9 -2 16 2 17 5 0 24 2
42 4 17 2 32 -1 32 -6 0 -6 7 -3 16 5 20 20 30 21 14 1 -11 -13 -10 -14 4 -9
9 3 16 10 16 16 0 5 5 6 10 3 6 -4 23 -8 38 -10 15 -2 21 -2 15 1 -23 10 -13
23 15 20 15 -2 32 -1 37 2 20 13 39 10 52 -6 12 -15 12 -15 6 3 l-6 20 23 -20
c13 -11 20 -14 16 -7 -5 9 -3 12 7 10 9 -2 23 6 32 17 9 11 14 14 10 8 -4 -9
3 -13 25 -13 18 0 29 4 25 10 -4 6 1 7 11 3 10 -4 15 -2 11 4 -3 5 0 10 8 10
8 0 12 -4 9 -9 -3 -4 2 -8 11 -8 10 0 13 5 9 13 -5 8 -3 8 9 -2 14 -11 18 -11
23 4 5 13 9 14 15 3 7 -11 11 -10 19 2 7 11 10 11 10 2 0 -16 53 -10 76 8 7 7
28 14 44 15 27 2 30 0 25 -19 -5 -17 -4 -18 4 -5 7 11 22 15 46 13 29 -2 38 2
45 19 8 20 15 9 11 -16 -1 -5 3 -6 9 -2 6 3 8 10 5 15 -3 5 -1 11 5 15 5 3 10
1 10 -6 0 -7 7 -4 15 7 10 12 13 13 10 4 -4 -12 1 -16 19 -16 14 0 22 4 20 8
-3 5 -10 5 -16 2 -7 -4 -8 -2 -4 4 10 17 22 15 42 -5 17 -17 18 -17 11 0 -3 9
-2 18 3 18 20 3 25 4 38 12 7 5 12 5 11 0 -3 -18 2 -27 9 -16 4 7 23 15 42 18
19 3 32 3 28 0 -5 -6 -28 -12 -50 -14 -5 -1 -8 -6 -8 -12 0 -6 5 -7 13 -2 6 4
19 8 27 10 8 1 20 10 27 19 7 10 13 12 13 6 0 -7 5 -12 11 -12 5 0 8 4 5 8 -3
5 1 9 9 9 8 0 12 -4 9 -9 -3 -4 -1 -8 4 -8 6 0 12 6 15 14 4 10 16 13 37 9 24
-3 30 -1 25 8 -5 8 -4 10 4 5 9 -6 9 -12 -1 -24 -10 -14 -10 -15 2 -5 11 10
17 10 29 0 14 -11 14 -10 2 5 -11 15 -11 18 0 22 8 2 22 7 31 10 11 3 15 1 12
-8 -3 -7 2 -13 10 -13 8 0 13 3 11 6 -2 4 8 11 21 18 13 6 22 7 19 3 -3 -5 -1
-11 5 -15 5 -3 10 -2 10 3 0 5 9 12 20 15 11 3 18 1 14 -4 -3 -5 -1 -9 5 -9 5
0 11 5 13 12 2 6 11 12 20 14 12 1 15 -3 10 -14 -5 -15 -4 -15 12 -3 15 13 19
13 27 0 7 -11 9 -8 10 11 0 14 3 19 6 12 4 -10 8 -10 20 0 14 11 15 10 8 -12
-7 -23 -7 -23 19 5 15 17 25 25 22 19 -3 -7 1 -15 10 -18 8 -3 13 -2 10 3 -9
13 31 20 43 8 8 -8 11 -7 11 4 0 11 10 15 38 14 l37 -1 3 -1237z m-935 1110
c4 3 7 1 7 -5 0 -17 -16 -15 -31 6 -12 15 -12 16 2 5 9 -7 19 -10 22 -6z m-38
-15 c-3 -3 -11 0 -18 7 -9 10 -8 11 6 5 10 -3 15 -9 12 -12z m-118 -9 c-9 -8
-57 -13 -57 -6 0 5 14 9 31 9 16 1 28 0 26 -3z m-297 -37 c0 -3 -4 -8 -10 -11
-5 -3 -10 -1 -10 4 0 6 5 11 10 11 6 0 10 -2 10 -4z m-565 -85 c-9 -8 -36 -10
-30 -2 2 4 11 8 20 8 8 0 13 -3 10 -6z m-621 -259 c3 -5 -1 -9 -9 -9 -8 0 -12
4 -9 9 3 4 7 8 9 8 2 0 6 -4 9 -8z m3 -248 c-3 -3 -12 -4 -19 -1 -8 3 -5 6 6
6 11 1 17 -2 13 -5z m0 -120 c-3 -3 -12 -4 -19 -1 -8 3 -5 6 6 6 11 1 17 -2
13 -5z m-3 -592 c3 -5 -1 -9 -9 -9 -8 0 -12 4 -9 9 3 4 7 8 9 8 2 0 6 -4 9 -8z
m0 -960 c3 -5 -1 -9 -9 -9 -8 0 -12 4 -9 9 3 4 7 8 9 8 2 0 6 -4 9 -8z m2731
-232 c-3 -5 -12 -10 -18 -10 -7 0 -6 4 3 10 19 12 23 12 15 0z m-2728 -16 c-3
-3 -12 -4 -19 -1 -8 3 -5 6 6 6 11 1 17 -2 13 -5z m2173 -98 c0 -2 -8 -10 -17
-17 -16 -13 -17 -12 -4 4 13 16 21 21 21 13z m30 -6 c0 -5 -4 -10 -10 -10 -5
0 -10 5 -10 10 0 6 5 10 10 10 6 0 10 -4 10 -10z"/>
<path d="M2995 3590 c-3 -5 -1 -10 4 -10 6 0 11 5 11 10 0 6 -2 10 -4 10 -3 0
-8 -4 -11 -10z"/>
<path d="M3026 3588 c3 -4 9 -8 15 -8 5 0 9 4 9 8 0 5 -7 9 -15 9 -8 0 -12 -4
-9 -9z"/>
<path d="M2761 3554 c0 -11 3 -14 6 -6 3 7 2 16 -1 19 -3 4 -6 -2 -5 -13z"/>
<path d="M2885 3560 c-3 -6 1 -7 9 -4 18 7 21 14 7 14 -6 0 -13 -4 -16 -10z"/>
<path d="M2595 3530 c3 -5 8 -10 11 -10 2 0 4 5 4 10 0 6 -5 10 -11 10 -5 0
-7 -4 -4 -10z"/>
<path d="M2511 3514 c0 -11 3 -14 6 -6 3 7 2 16 -1 19 -3 4 -6 -2 -5 -13z"/>
<path d="M2297 3483 c3 -7 6 -13 8 -13 2 0 5 6 8 13 3 8 -1 14 -8 14 -7 0 -11
-6 -8 -14z"/>
<path d="M1995 3450 c-3 -5 -1 -10 4 -10 6 0 11 5 11 10 0 6 -2 10 -4 10 -3 0
-8 -4 -11 -10z"/>
<path d="M1574 3388 c-4 -5 -3 -12 0 -15 3 -4 6 -1 6 5 0 6 7 9 15 6 8 -4 15
-2 15 3 0 12 -29 13 -36 1z"/>
<path d="M1350 3358 c0 -4 9 -7 20 -5 29 5 33 13 5 13 -14 0 -25 -4 -25 -8z"/>
<path d="M575 3250 c3 -5 8 -10 11 -10 2 0 4 5 4 10 0 6 -5 10 -11 10 -5 0 -7
-4 -4 -10z"/>
<path d="M483 3135 c0 -7 6 -11 14 -8 7 3 13 6 13 8 0 2 -6 5 -13 8 -8 3 -14
-1 -14 -8z"/>
<path d="M2457 3104 c-1 -1 -26 -5 -56 -8 -83 -10 -192 -36 -231 -56 -64 -33
-112 -106 -125 -191 -10 -63 -7 -216 4 -238 6 -10 7 -22 3 -26 -4 -5 -1 -5 6
-1 6 4 12 2 12 -4 0 -6 5 -8 10 -5 6 3 10 -2 10 -12 0 -15 2 -16 10 -3 10 17
62 22 53 5 -4 -5 -3 -7 2 -3 4 4 13 3 20 -2 8 -7 12 -5 12 5 0 8 -4 12 -9 9
-4 -3 -8 0 -8 6 0 6 12 8 31 5 17 -3 28 -2 25 3 -3 5 1 9 9 9 8 0 12 -4 9 -9
-3 -4 2 -5 10 -2 9 3 17 15 17 25 1 10 2 28 3 39 0 12 8 25 16 30 13 8 12 10
-3 10 -17 0 -17 2 3 30 12 17 17 30 12 30 -5 0 -14 -10 -20 -22 l-11 -23 3 23
c1 13 16 32 32 44 16 11 21 18 12 14 -10 -3 -18 -1 -18 4 0 6 5 10 11 10 5 0
7 5 4 10 -10 16 2 12 20 -7 16 -15 17 -15 14 3 -2 10 1 19 6 19 6 0 9 -4 7
-10 -2 -5 0 -7 4 -3 4 4 14 2 22 -5 13 -10 14 -9 4 10 -10 18 -9 21 6 18 9 -2
21 -4 25 -4 5 -1 6 -5 3 -9 -2 -4 4 -8 14 -8 16 0 17 3 7 16 -10 13 -10 13 5
2 15 -12 21 -27 33 -91 9 -50 17 -233 11 -266 -6 -28 -14 -37 -56 -56 -56 -25
-58 -32 -50 -161 4 -66 8 -80 28 -94 12 -8 19 -20 16 -26 -4 -7 -2 -8 5 -4 6
4 9 11 6 16 -7 11 22 7 32 -5 4 -4 2 -5 -4 -1 -9 5 -11 2 -6 -10 5 -15 7 -15
15 0 26 46 46 -14 54 -164 10 -190 8 -229 -11 -250 -22 -24 -98 -50 -146 -50
-41 0 -51 13 -45 63 2 16 -2 31 -8 33 -6 2 -13 16 -14 30 -1 17 2 23 10 18 7
-4 8 -3 4 5 -4 6 -11 9 -16 6 -4 -3 -13 1 -19 9 -9 10 -23 11 -59 5 -26 -5
-61 -11 -79 -14 -53 -9 -60 -23 -58 -121 2 -101 11 -148 34 -184 20 -31 61
-70 73 -70 5 0 6 -5 3 -10 -4 -6 -3 -10 2 -9 22 4 34 -2 27 -13 -6 -10 -4 -10
7 0 16 15 29 16 29 1 0 -5 -4 -7 -10 -4 -6 4 -7 -1 -3 -11 5 -15 7 -15 15 0 5
9 14 16 19 16 6 0 8 -4 5 -9 -4 -5 2 -8 11 -7 10 2 22 -2 26 -8 6 -7 7 -6 4 4
-2 8 -11 13 -18 12 -8 -2 -10 0 -6 4 11 12 37 14 37 3 0 -5 5 -9 11 -9 5 0 8
4 5 8 -3 5 1 9 9 9 18 0 19 -9 3 -27 -7 -8 -3 -6 9 4 13 10 19 24 16 30 -4 6
5 3 20 -7 27 -17 28 -17 37 5 5 13 9 17 9 11 1 -7 8 -13 17 -13 9 0 12 5 8 13
-5 8 -2 8 9 -2 9 -7 17 -10 17 -6 0 4 7 1 17 -6 15 -13 15 -12 4 9 -6 12 -10
22 -9 23 24 6 38 5 38 -3 0 -6 -7 -8 -15 -4 -22 8 -18 -2 6 -15 15 -8 19 -8
15 0 -4 6 -2 11 4 11 6 0 8 5 4 11 -4 7 5 10 27 7 27 -2 33 1 31 13 -1 9 5 23
15 30 9 8 14 9 10 3 -4 -7 0 -14 8 -17 9 -4 12 -1 8 9 -3 10 0 12 10 8 8 -3
18 -1 22 5 3 7 0 8 -10 5 -11 -5 -14 -2 -9 10 3 9 11 13 17 9 6 -4 8 0 4 9 -3
9 2 23 13 33 11 10 18 20 16 24 -2 3 0 15 5 26 7 15 8 12 5 -13 -2 -17 -1 -30
4 -27 4 3 8 33 7 68 0 43 3 61 11 60 7 -2 12 2 12 8 0 5 5 7 12 3 7 -4 8 -3 4
4 -4 6 -14 8 -24 5 -14 -5 -15 -3 -4 8 13 14 17 33 4 25 -4 -3 -9 12 -9 32 -1
20 -3 52 -5 70 -3 22 0 32 10 32 7 0 10 5 7 10 -4 6 -9 8 -13 6 -4 -2 -7 36
-6 84 0 49 -3 87 -6 85 -3 -2 -6 11 -6 30 0 20 5 31 11 28 7 -2 12 3 12 11 0
8 -5 12 -12 10 -6 -3 -12 6 -13 18 -5 37 -9 63 -11 63 -2 0 -4 8 -6 18 -2 9 0
15 5 12 4 -3 10 2 13 10 4 9 1 12 -7 9 -7 -3 -13 2 -13 11 0 10 6 14 16 10 12
-5 13 -3 4 6 -6 6 -9 18 -6 25 3 8 0 14 -6 14 -6 0 -11 5 -11 11 0 6 7 8 16 5
9 -3 12 -2 9 5 -4 5 -1 18 6 27 11 14 11 15 -1 5 -18 -17 -38 -17 -22 -1 16
16 15 31 0 22 -7 -4 -4 2 6 14 11 12 16 25 13 29 -4 3 -7 1 -7 -5 0 -7 -4 -12
-8 -12 -9 0 -9 67 1 76 12 12 8 26 -5 18 -9 -5 -9 -2 1 9 11 14 11 17 0 17
-12 0 -12 2 -1 9 11 6 10 10 -3 15 -14 5 -15 9 -5 21 7 8 9 15 4 15 -4 0 -3 5
4 12 15 15 15 28 1 28 -5 0 -7 -6 -3 -12 4 -7 4 -10 -1 -6 -9 9 -13 138 -3
138 3 0 5 8 3 18 -2 9 -4 21 -4 25 -1 5 -5 6 -9 3 -5 -3 -9 1 -9 9 0 8 4 12 9
9 4 -3 8 0 8 5 0 6 -4 11 -10 11 -5 0 -10 5 -10 11 0 5 4 8 9 5 5 -3 11 1 14
9 4 9 1 12 -9 8 -7 -3 -15 0 -15 6 -1 6 -2 14 -3 19 0 4 -12 25 -25 47 -14 22
-24 44 -23 48 2 5 -2 6 -7 3 -5 -4 -13 0 -18 7 -14 25 -77 51 -126 52 -26 1
-48 1 -50 -1z m-162 -324 c3 -6 -1 -7 -9 -4 -18 7 -21 14 -7 14 6 0 13 -4 16
-10z m340 -1300 c3 -6 -1 -7 -9 -4 -18 7 -21 14 -7 14 6 0 13 -4 16 -10z"/>
<path d="M1648 2954 c-2 -1 -41 -10 -88 -19 -104 -21 -165 -53 -207 -109 -44
-57 -57 -124 -49 -255 4 -58 7 -115 7 -126 1 -11 3 -14 6 -7 6 16 21 15 39 -3
15 -15 48 -10 38 6 -3 5 0 9 5 9 6 0 11 -4 11 -9 0 -19 31 -20 50 -1 18 18 20
18 21 3 0 -14 2 -13 9 5 9 20 21 27 43 23 5 -1 5 4 0 11 -4 7 -8 49 -8 93 l0
81 29 -1 c20 0 30 5 32 18 1 9 -3 17 -9 17 -5 0 -8 2 -5 5 9 10 38 -7 31 -18
-4 -6 -1 -7 6 -3 7 5 10 13 8 20 -3 7 5 13 16 14 17 1 19 -1 7 -8 -9 -6 -11
-12 -5 -17 6 -5 9 -6 7 -4 -1 3 7 10 20 17 18 10 25 9 36 -5 12 -14 13 -14 7
3 -6 19 -5 19 14 2 11 -10 20 -28 20 -40 0 -11 2 -43 5 -71 11 -101 14 -261 6
-281 -5 -12 -28 -28 -54 -38 -34 -13 -46 -23 -47 -39 -4 -75 4 -196 13 -191 3
2 12 -1 20 -8 14 -13 29 -19 59 -21 10 -1 15 -7 12 -14 -3 -8 0 -13 7 -11 16
4 18 -8 25 -187 7 -152 -2 -226 -27 -241 -6 -4 -39 -13 -72 -20 -53 -11 -65
-10 -95 4 -19 9 -29 18 -23 20 8 2 6 12 -6 30 -9 14 -12 23 -6 19 7 -4 14 0
17 8 4 9 1 12 -8 9 -15 -6 -15 12 -1 35 6 10 5 12 -2 7 -7 -4 -16 3 -23 17
-10 22 -14 23 -57 15 -26 -4 -65 -11 -86 -13 -65 -8 -69 -16 -63 -130 3 -55
10 -113 16 -128 6 -16 8 -33 5 -39 -4 -7 -2 -8 4 -4 7 4 12 3 12 -2 0 -5 12
-21 26 -35 14 -14 23 -30 20 -35 -3 -5 5 -8 17 -8 16 1 21 -4 19 -19 -2 -13 0
-16 5 -8 9 13 53 14 53 1 0 -4 7 -8 16 -8 8 0 13 4 10 8 -3 5 1 9 9 9 8 0 12
-4 10 -8 -3 -4 2 -9 10 -12 9 -4 12 -1 9 7 -9 23 25 27 47 5 21 -21 21 -21 15
-1 -7 21 6 24 31 9 9 -6 11 -3 6 10 -5 15 -3 16 8 6 15 -15 33 -18 25 -5 -3 5
2 9 10 9 9 0 13 -6 9 -16 -3 -9 3 -5 13 8 15 18 21 21 27 11 5 -9 4 -11 -3 -6
-7 4 -12 2 -12 -3 0 -17 18 -13 29 7 10 19 51 28 51 11 0 -6 -5 -7 -12 -3 -7
4 -8 3 -4 -5 6 -8 12 -9 20 -2 7 6 15 8 19 5 3 -3 3 5 1 18 -5 21 -4 21 6 5
11 -18 13 -18 35 3 14 13 29 19 37 15 10 -6 10 -5 1 5 -10 11 -15 11 -28 0 -8
-7 -15 -8 -15 -2 0 17 56 32 71 19 11 -10 11 -9 0 5 -7 10 -17 15 -22 12 -5
-3 -9 0 -9 5 0 6 9 11 19 11 10 0 22 7 25 16 9 24 7 31 -4 14 -5 -8 -10 -10
-10 -4 0 19 13 24 28 11 13 -10 14 -9 2 12 -11 21 -10 23 5 18 11 -5 15 -3 12
5 -2 7 -11 12 -18 10 -8 -1 -1 9 14 23 23 20 26 28 17 42 -10 17 -10 17 -8 -1
2 -10 -4 -21 -12 -23 -9 -3 -11 -1 -5 4 6 4 11 23 10 41 0 19 4 36 9 39 5 4 6
1 2 -5 -3 -6 -2 -13 2 -16 5 -3 9 5 8 17 -1 12 -7 21 -14 20 -6 -2 -9 4 -6 12
4 8 10 15 16 15 5 0 6 -4 3 -10 -10 -16 1 -12 15 6 8 8 9 14 4 13 -18 -3 -37
1 -31 8 4 3 2 12 -4 19 -7 8 -6 14 2 20 8 4 9 3 5 -4 -4 -7 -4 -12 1 -12 4 0
14 12 21 27 9 20 9 24 0 15 -16 -16 -25 -15 -25 3 0 8 4 12 9 9 4 -3 8 0 8 5
0 6 -8 11 -17 11 -15 0 -16 2 -3 9 8 6 17 8 20 6 3 -2 5 7 5 20 0 12 -5 21
-11 18 -12 -4 -13 51 -1 63 14 14 7 26 -8 14 -20 -16 -19 -6 1 14 14 15 14 16
-2 16 -16 0 -16 1 2 16 10 8 14 13 8 10 -7 -3 -15 1 -18 10 -3 8 -2 12 3 9 5
-3 12 -1 16 5 3 5 -2 10 -12 11 -16 0 -16 1 2 9 18 8 18 9 2 9 -11 1 -15 6
-11 12 3 6 0 15 -7 20 -11 7 -10 9 4 9 9 0 17 5 17 11 0 5 -4 8 -9 5 -5 -3
-15 1 -22 10 -7 8 -8 14 -3 13 20 -3 28 2 15 10 -8 5 -15 20 -15 33 -1 12 -5
28 -9 34 -4 7 1 18 10 25 14 12 16 12 8 -1 -6 -12 -5 -13 5 -3 10 9 10 15 -4
28 -21 22 -21 31 2 14 9 -7 14 -9 10 -5 -4 5 -3 15 4 23 8 11 7 12 -6 7 -9 -3
-16 -1 -16 5 0 6 5 11 10 11 6 0 10 5 10 11 0 5 -4 8 -8 5 -5 -3 -9 1 -9 9 0
18 9 19 27 3 9 -8 8 -5 -1 7 -9 11 -14 26 -11 34 2 8 0 11 -5 8 -5 -3 -10 0
-10 8 0 8 4 12 8 10 9 -6 17 16 12 33 -3 6 -8 10 -12 8 -12 -8 -10 27 3 43 8
11 8 13 -1 8 -8 -5 -12 11 -15 53 -1 33 0 60 5 60 4 0 7 -5 7 -12 0 -6 3 -8 6
-5 4 4 1 14 -7 23 -17 21 -21 46 -6 37 7 -3 9 -3 5 2 -4 4 -3 17 3 29 9 19 9
19 -4 4 -8 -10 -16 -18 -18 -18 -2 0 -4 29 -5 65 -1 35 3 62 7 59 4 -2 11 1
15 7 4 7 3 9 -3 6 -12 -7 -36 16 -27 26 3 3 -3 18 -13 33 -14 22 -15 26 -3 20
11 -6 11 -4 -1 6 -9 7 -17 16 -17 21 -3 16 -73 69 -104 78 -29 8 -173 11 -180
3z m-188 -498 c0 -2 -6 -9 -14 -15 -11 -9 -16 -9 -22 0 -4 7 -3 9 4 5 6 -3 13
-2 17 4 6 10 15 14 15 6z m425 -1105 c3 -5 2 -12 -3 -15 -5 -3 -9 1 -9 9 0 17
3 19 12 6z"/>
<path d="M1129 2836 c-2 -2 -21 -6 -42 -9 -44 -6 -67 -22 -67 -47 0 -29 -56
-43 -71 -18 -11 17 -46 -9 -90 -64 l-40 -51 4 -141 c6 -164 6 -169 22 -156 7
6 16 5 24 -3 10 -10 12 -8 9 8 -2 17 3 20 32 21 30 0 35 4 34 22 -1 18 1 20
12 11 19 -15 18 -4 -1 15 -14 13 -13 15 2 13 15 -1 18 -12 19 -71 0 -39 4
-105 7 -146 4 -41 9 -151 12 -245 6 -167 7 -201 20 -480 4 -77 8 -176 9 -220
2 -44 8 -89 14 -100 6 -11 12 -16 12 -11 0 6 7 1 16 -10 8 -10 13 -14 10 -8
-5 10 28 11 110 2 20 -3 31 1 31 9 0 6 -5 9 -11 6 -6 -4 -5 1 3 10 14 18 26
24 17 8 -3 -5 4 -11 16 -14 15 -4 18 -3 10 5 -8 8 -7 15 6 24 11 9 13 13 4 14
-10 0 -10 3 0 14 7 8 17 11 22 8 5 -3 6 0 2 7 -6 9 -12 9 -24 -1 -14 -11 -14
-8 2 16 10 16 12 25 5 21 -7 -5 -10 -4 -5 3 3 5 0 13 -6 15 -10 4 -10 6 0 6 7
1 10 5 7 11 -3 5 0 7 9 4 10 -4 14 0 12 12 -2 10 -8 20 -15 22 -9 3 -7 10 6
25 10 11 12 17 6 13 -8 -4 -13 -1 -13 8 0 8 -6 17 -12 19 -10 4 -10 6 0 6 6 1
12 6 12 12 0 5 -4 8 -8 5 -10 -6 -9 70 1 80 4 5 5 0 1 -11 -8 -21 -6 -20 14 7
12 14 10 16 -13 14 -19 -3 -23 0 -15 9 5 6 7 15 4 18 -11 11 -12 67 -1 60 7
-4 8 0 3 13 -13 32 -15 55 -5 49 5 -4 9 -2 9 4 0 5 -6 11 -12 14 -10 3 -9 8 2
22 8 10 10 16 4 12 -7 -4 -15 0 -18 9 -3 8 -2 12 4 9 6 -3 10 1 10 9 0 9 -5
16 -10 16 -6 0 -5 6 2 14 7 8 18 11 23 8 6 -3 3 3 -5 14 -22 29 -24 30 -17 12
3 -10 3 -20 -2 -22 -4 -3 -7 14 -5 37 1 23 2 42 4 42 1 0 3 8 5 18 2 9 -1 17
-7 17 -6 0 -7 -8 -4 -17 4 -10 3 -14 -1 -9 -10 10 -11 76 -1 70 5 -3 6 -9 3
-14 -3 -5 -1 -11 4 -15 6 -3 8 4 6 16 -3 13 1 29 8 37 10 13 9 14 -8 5 -19
-11 -20 -8 -20 63 -1 63 2 74 15 69 8 -3 4 5 -10 17 -22 19 -23 21 -4 16 15
-4 20 -1 19 13 -1 10 -5 22 -10 26 -4 5 -5 3 -1 -4 3 -6 1 -15 -6 -19 -7 -4
-10 -4 -6 0 4 5 3 19 -2 32 -6 14 -6 26 0 29 15 9 12 27 -2 19 -7 -4 -6 1 3
12 9 10 14 25 11 33 -3 9 0 11 8 6 8 -5 11 -4 6 3 -4 6 -14 8 -22 5 -14 -5
-15 -3 -4 17 8 15 8 20 1 16 -6 -4 -11 0 -11 9 0 9 4 13 10 10 6 -3 7 1 4 9
-3 9 -9 14 -13 12 -4 -3 -6 25 -6 60 0 47 3 63 13 59 6 -2 12 0 12 4 0 5 -6
11 -14 14 -9 4 -12 18 -10 48 2 23 -1 48 -7 56 -14 17 2 17 21 1 9 -8 8 -5 -1
7 -9 11 -14 26 -11 34 3 9 0 11 -8 6 -7 -4 -6 2 4 16 11 18 12 28 5 39 -9 13
-10 12 -5 -2 3 -10 2 -19 -3 -22 -4 -3 -8 14 -9 37 -2 67 -6 81 -27 94 -22 13
-29 15 -36 9z m-195 -442 c3 -8 2 -12 -4 -9 -6 3 -10 10 -10 16 0 14 7 11 14
-7z m291 -114 c3 -5 1 -10 -4 -10 -6 0 -11 5 -11 10 0 6 2 10 4 10 3 0 8 -4
11 -10z m52 -946 c-3 -3 -12 -4 -19 -1 -8 3 -5 6 6 6 11 1 17 -2 13 -5z m-87
-170 c0 -8 -19 -13 -24 -6 -3 5 1 9 9 9 8 0 15 -2 15 -3z"/>
<path d="M2730 2763 c0 -5 5 -15 10 -23 7 -12 9 -10 7 8 -1 19 -17 33 -17 15z"/>
<path d="M1990 2735 c-7 -9 -11 -17 -9 -20 3 -2 10 5 17 15 14 24 10 26 -8 5z"/>
<path d="M2286 2647 c2 -11 6 -22 10 -26 4 -3 5 1 1 10 -3 9 -1 21 4 26 6 6 4
10 -5 10 -9 0 -13 -8 -10 -20z"/>
<path d="M2742 2655 c4 -4 3 -14 -3 -22 -7 -8 -8 -13 -1 -13 15 0 23 28 9 36
-7 4 -9 4 -5 -1z"/>
<path d="M1543 2635 c-7 -8 -9 -16 -4 -19 5 -3 12 1 15 10 8 22 4 25 -11 9z"/>
<path d="M2000 2600 c-9 -6 -10 -10 -3 -10 6 0 15 5 18 10 8 12 4 12 -15 0z"/>
<path d="M1215 2569 c-4 -6 -5 -12 -2 -15 2 -3 7 2 10 11 7 17 1 20 -8 4z"/>
<path d="M1535 2560 c3 -5 8 -10 11 -10 2 0 4 5 4 10 0 6 -5 10 -11 10 -5 0
-7 -4 -4 -10z"/>
<path d="M1533 2510 c1 -11 5 -20 9 -20 3 0 6 9 5 20 -1 11 -5 20 -9 20 -3 0
-6 -9 -5 -20z"/>
<path d="M1216 2467 c3 -10 9 -15 12 -12 3 3 0 11 -7 18 -10 9 -11 8 -5 -6z"/>
<path d="M1505 2451 c-3 -5 0 -13 6 -17 7 -4 9 -3 5 4 -3 5 0 13 6 15 9 4 10
6 1 6 -6 1 -14 -3 -18 -8z"/>
<path d="M1213 2410 c1 -21 10 -18 13 5 1 8 -2 15 -6 15 -5 0 -8 -9 -7 -20z"/>
<path d="M890 2356 c7 -7 13 -7 20 0 6 6 3 10 -10 10 -13 0 -16 -4 -10 -10z"/>
<path d="M2746 2258 c3 -5 10 -6 15 -3 13 9 11 12 -6 12 -8 0 -12 -4 -9 -9z"/>
<path d="M2758 2208 c2 -10 6 -18 7 -18 1 0 5 8 7 18 3 11 0 19 -7 19 -7 0
-10 -8 -7 -19z"/>
<path d="M1987 2169 c7 -7 15 -10 18 -7 3 3 -2 9 -12 12 -14 6 -15 5 -6 -5z"/>
<path d="M1990 2146 c0 -2 7 -7 16 -10 8 -3 12 -2 9 4 -6 10 -25 14 -25 6z"/>
<path d="M2763 2125 c0 -8 4 -15 9 -15 4 0 8 4 8 9 0 6 -4 12 -8 15 -5 3 -9
-1 -9 -9z"/>
<path d="M1233 2085 c0 -8 4 -12 9 -9 5 3 6 10 3 15 -9 13 -12 11 -12 -6z"/>
<path d="M2773 2010 c1 -21 10 -18 13 5 1 8 -2 15 -6 15 -5 0 -8 -9 -7 -20z"/>
<path d="M2770 1976 c0 -2 8 -10 18 -17 15 -13 16 -12 3 4 -13 16 -21 21 -21
13z"/>
<path d="M2030 1880 c-12 -8 -12 -10 -1 -10 11 0 11 -3 0 -17 -11 -15 -11 -16
1 -6 8 7 15 20 16 28 3 18 3 17 -16 5z"/>
<path d="M2778 1863 c6 -2 9 -10 6 -15 -4 -7 -2 -8 5 -4 13 9 5 26 -12 25 -9
0 -8 -2 1 -6z"/>
<path d="M2789 1817 c6 -8 7 -18 3 -22 -4 -5 -1 -5 6 -1 10 6 10 11 1 22 -6 8
-14 14 -16 14 -3 0 0 -6 6 -13z"/>
<path d="M1250 1706 c0 -2 7 -7 16 -10 8 -3 12 -2 9 4 -6 10 -25 14 -25 6z"/>
<path d="M2781 1701 c-8 -5 -9 -11 -3 -15 5 -3 12 1 16 9 6 17 6 18 -13 6z"/>
<path d="M2731 1576 c-9 -11 -9 -16 0 -22 7 -4 9 -3 5 4 -3 5 0 12 6 15 7 2
10 7 7 11 -3 4 -12 0 -18 -8z"/>
<path d="M1257 1569 c7 -7 15 -10 18 -7 3 3 -2 9 -12 12 -14 6 -15 5 -6 -5z"/>
<path d="M1790 1305 c0 -8 4 -15 10 -15 5 0 7 7 4 15 -4 8 -8 15 -10 15 -2 0
-4 -7 -4 -15z"/>
<path d="M1590 1280 c0 -5 5 -10 11 -10 5 0 7 5 4 10 -3 6 -8 10 -11 10 -2 0
-4 -4 -4 -10z"/>
<path d="M1090 1139 c0 -8 47 -6 55 3 3 2 -9 4 -25 4 -17 0 -30 -3 -30 -7z"/>
<path d="M3546 3598 c-10 -5 -12 -304 -12 -1429 1 -1522 3 -1448 -47 -1450
-12 0 -35 -3 -52 -5 -16 -2 -91 -13 -165 -24 -74 -11 -218 -31 -320 -45 -102
-14 -198 -28 -215 -30 -82 -12 -736 -105 -774 -110 -23 -3 -55 -7 -70 -10 -15
-3 -45 -7 -67 -10 -62 -8 -127 -16 -154 -21 -14 -2 -90 -13 -170 -24 -80 -11
-156 -22 -170 -25 -14 -2 -59 -8 -100 -14 -130 -18 -164 -23 -210 -30 l-45 -6
1 -45 c4 -132 24 -211 57 -216 9 -1 15 2 12 7 -4 5 1 6 10 3 8 -4 23 0 32 7
15 12 16 12 10 -3 -3 -10 -2 -20 4 -23 5 -4 9 -3 8 2 -6 33 16 47 24 15 4 -16
5 -16 6 1 0 9 8 17 17 17 9 0 12 5 8 13 -5 9 -4 9 6 0 9 -9 19 -9 33 -2 12 7
17 7 13 1 -3 -5 1 -15 8 -21 12 -10 14 -8 9 11 -4 18 -3 20 6 8 6 -8 11 -11
11 -6 0 5 6 3 13 -3 14 -11 27 -5 27 13 0 6 -5 4 -11 -4 -8 -12 -10 -12 -7 -1
2 8 14 15 25 16 14 1 19 -3 16 -12 -3 -7 0 -13 6 -13 6 0 11 6 11 14 0 8 5 18
12 22 7 4 8 3 4 -4 -10 -16 7 -15 23 0 9 8 11 8 8 2 -4 -7 0 -15 9 -18 23 -9
31 -7 14 4 -8 5 -11 12 -8 15 4 4 13 3 20 -1 17 -11 68 -12 74 -2 3 5 10 6 15
3 5 -4 9 -1 9 5 0 7 -7 9 -18 5 -13 -5 -14 -4 -5 6 10 10 15 9 28 -1 14 -11
19 -7 16 13 -2 12 6 8 20 -10 12 -14 12 -16 0 -8 -10 5 -12 4 -7 -4 6 -8 12
-9 20 -2 7 6 17 7 21 3 5 -4 5 -1 1 6 -4 7 -13 9 -19 6 -7 -4 -9 -3 -4 1 13
15 48 13 43 -2 -3 -8 -1 -11 4 -8 6 3 10 13 10 21 0 14 2 14 15 1 8 -9 24 -13
36 -10 16 4 17 8 7 14 -8 5 -9 9 -2 9 6 0 17 -7 24 -15 7 -8 17 -15 22 -15 5
0 2 7 -6 16 -22 21 -20 27 4 14 15 -8 20 -8 18 1 -4 14 30 21 38 8 3 -5 15
-14 27 -19 20 -10 20 -10 5 3 -22 17 -23 24 -3 24 8 0 15 -4 15 -9 0 -4 4 -8
10 -8 5 0 7 6 4 13 -3 8 3 13 15 13 14 0 17 -4 10 -12 -7 -8 -6 -15 2 -20 8
-4 9 -3 5 4 -4 7 -1 12 9 12 10 0 13 5 9 13 -4 6 3 3 15 -8 12 -11 22 -15 21
-10 -5 22 0 40 8 29 4 -6 18 -16 32 -23 22 -11 23 -10 7 2 -18 15 -23 28 -9
26 4 -1 9 0 12 1 25 9 38 6 33 -8 -3 -13 -1 -13 11 2 15 18 21 15 17 -8 -1 -5
5 -4 13 3 8 7 20 10 25 6 6 -3 8 0 5 8 -3 8 2 14 11 14 11 0 14 -6 9 -21 -4
-15 -2 -17 4 -8 8 12 28 19 60 21 7 1 10 6 6 13 -4 6 -3 8 4 4 5 -3 13 0 16 6
3 7 4 5 3 -6 -1 -11 5 -20 16 -21 9 -2 15 0 12 5 -11 17 21 30 80 31 11 0 23
5 28 12 6 8 7 7 4 -4 -3 -9 1 -16 9 -16 9 0 13 6 9 16 -5 12 -3 13 6 4 6 -6
18 -9 27 -6 11 5 13 3 7 -7 -5 -9 -4 -11 4 -6 6 4 9 11 6 16 -3 4 4 10 16 13
17 4 18 3 8 -9 -10 -12 -8 -14 9 -11 12 2 25 7 29 12 5 4 2 5 -6 0 -10 -5 -12
-4 -7 4 4 6 13 8 19 4 20 -13 36 -12 31 2 -6 15 32 14 57 0 11 -7 12 -6 2 6
-10 13 -7 14 22 11 19 -2 35 -9 35 -16 0 -6 4 -5 9 3 8 13 12 13 28 0 16 -12
17 -12 6 2 -13 16 -8 29 9 29 5 0 6 -5 2 -11 -4 -7 -1 -10 7 -7 8 3 13 11 11
17 -1 8 8 6 27 -4 22 -11 32 -12 37 -3 4 6 3 8 -4 4 -6 -3 -13 -2 -17 3 -3 6
6 8 21 5 16 -3 31 0 35 8 7 10 9 10 9 1 0 -7 5 -13 11 -13 5 0 7 4 4 10 -4 6
1 7 11 3 10 -4 15 -2 11 3 -9 15 69 10 87 -5 11 -9 16 -10 16 -2 0 6 -4 11
-10 11 -5 0 -10 4 -10 8 0 5 7 9 15 9 8 0 15 -4 15 -8 0 -4 7 -10 16 -13 14
-5 15 -4 4 9 -11 13 -10 14 5 9 11 -4 16 -3 12 2 -3 5 11 8 35 6 27 -3 43 0
49 9 6 10 9 11 9 2 0 -7 5 -13 11 -13 5 0 7 6 3 12 -5 8 0 7 11 -2 10 -8 16
-10 12 -3 -4 6 -2 15 4 19 7 4 9 3 5 -4 -3 -6 -2 -13 4 -17 5 -3 10 1 10 10 0
11 5 15 14 12 7 -3 19 0 26 6 9 9 11 9 7 1 -9 -16 24 -27 37 -14 8 8 5 9 -9 4
-11 -4 -17 -4 -14 0 16 18 50 14 60 -7 8 -19 9 -18 4 8 -4 25 -3 28 7 15 15
-17 32 -20 45 -6 4 5 3 6 -4 2 -6 -3 -14 -2 -18 3 -6 10 33 6 43 -4 3 -3 17 2
30 11 23 15 25 15 19 0 -4 -10 -3 -15 3 -11 6 3 10 12 10 20 0 9 10 12 33 10
17 -2 32 -4 32 -5 0 -1 8 -3 18 -5 9 -2 17 1 17 7 0 6 -7 7 -16 4 -8 -3 -12
-2 -9 4 6 10 46 7 66 -6 8 -4 9 -3 5 4 -4 7 -2 13 3 13 21 3 26 4 38 12 6 4
15 2 19 -4 5 -8 3 -9 -6 -4 -8 5 -11 4 -7 -3 8 -11 25 -11 45 1 6 5 12 5 12 1
0 -4 8 0 18 9 10 10 21 14 24 11 3 -3 9 0 14 7 4 7 3 10 -4 5 -6 -3 -13 -2
-17 4 -3 5 -1 10 5 10 6 0 8 4 5 10 -10 16 2 12 21 -7 17 -17 18 -17 11 0 -5
14 -2 20 13 24 11 3 17 9 14 14 -3 5 -10 7 -15 4 -5 -3 -6 1 -3 9 5 14 8 14
21 1 8 -8 17 -15 21 -15 3 0 1 5 -6 12 -7 7 -12 16 -12 22 0 5 3 6 7 3 11 -12
31 26 27 51 -3 13 -1 21 5 18 5 -3 15 2 22 12 12 15 12 16 -2 4 -14 -10 -18
-10 -22 2 -3 8 -2 16 2 18 14 5 24 48 11 48 -6 0 -9 -4 -6 -8 2 -4 2 -13 -2
-19 -4 -6 -7 164 -7 378 0 252 4 389 10 390 6 1 14 1 18 0 5 -1 5 3 2 9 -4 6
-12 9 -19 7 -8 -3 -11 28 -11 109 0 107 3 119 28 115 5 -1 5 3 2 9 -4 6 -12 9
-19 7 -8 -3 -11 28 -11 109 0 107 3 119 28 115 5 -1 5 3 2 9 -4 6 -12 9 -19 7
-8 -3 -11 28 -11 109 0 107 3 119 28 115 5 -1 5 3 2 9 -4 6 -12 9 -19 7 -8 -3
-11 28 -11 109 0 107 3 119 28 115 5 -1 5 3 2 9 -4 6 -12 9 -19 7 -8 -3 -11
28 -11 109 0 107 3 119 28 115 5 -1 5 3 2 9 -4 6 -12 9 -19 7 -8 -3 -12 7 -12
29 0 31 7 39 29 35 5 -1 5 3 2 9 -4 6 -12 9 -19 7 -8 -3 -11 28 -11 109 0 107
3 119 28 115 5 -1 5 3 2 9 -4 6 -12 9 -19 7 -8 -3 -11 28 -11 109 0 107 3 119
28 115 5 -1 5 3 2 9 -4 6 -12 9 -19 7 -8 -3 -11 28 -11 109 0 107 3 119 28
115 5 -1 5 3 2 9 -4 6 -12 9 -19 7 -7 -3 -10 9 -9 37 0 22 -2 46 -5 51 -8 11
-216 14 -236 3z m230 -2965 c-2 -9 -9 -19 -17 -21 -9 -2 -10 -1 -3 5 6 4 10
16 8 26 -1 9 1 15 6 12 5 -3 7 -13 6 -22z m-118 -134 c-2 -6 -8 -11 -13 -11
-6 0 -15 -4 -21 -9 -7 -5 -11 -3 -11 6 0 8 4 12 8 9 4 -2 10 0 14 6 8 13 28
13 23 -1z m-308 -55 c0 -8 -19 -13 -24 -6 -3 5 1 9 9 9 8 0 15 -2 15 -3z
m-720 -100 c0 -8 -19 -13 -24 -6 -3 5 1 9 9 9 8 0 15 -2 15 -3z m-429 -77
c-10 -9 -11 -8 -5 6 3 10 9 15 12 12 3 -3 0 -11 -7 -18z m-728 -90 c3 -8 -5
-12 -24 -12 -15 -1 -25 3 -23 7 3 5 9 6 14 3 5 -3 11 -1 15 5 8 13 12 13 18
-3z"/>
<path d="M3795 3571 c-3 -5 -2 -12 3 -15 5 -3 9 1 9 9 0 17 -3 19 -12 6z"/>
<path d="M3330 3560 c-9 -6 -10 -10 -3 -10 6 0 15 5 18 10 8 12 4 12 -15 0z"/>
<path d="M3325 3500 c-3 -5 -1 -10 4 -10 6 0 11 5 11 10 0 6 -2 10 -4 10 -3 0
-8 -4 -11 -10z"/>
<path d="M3325 3470 c-3 -6 1 -7 9 -4 18 7 21 14 7 14 -6 0 -13 -4 -16 -10z"/>
<path d="M3796 3438 c3 -5 10 -6 15 -3 13 9 11 12 -6 12 -8 0 -12 -4 -9 -9z"/>
<path d="M3793 3355 c0 -8 4 -12 9 -9 5 3 6 10 3 15 -9 13 -12 11 -12 -6z"/>
<path d="M3796 3318 c3 -5 10 -6 15 -3 13 9 11 12 -6 12 -8 0 -12 -4 -9 -9z"/>
<path d="M3796 3198 c3 -5 10 -6 15 -3 13 9 11 12 -6 12 -8 0 -12 -4 -9 -9z"/>
<path d="M3793 3115 c0 -8 4 -12 9 -9 5 3 6 10 3 15 -9 13 -12 11 -12 -6z"/>
<path d="M3796 3078 c3 -5 10 -6 15 -3 13 9 11 12 -6 12 -8 0 -12 -4 -9 -9z"/>
<path d="M3325 3020 c-3 -5 -1 -10 4 -10 6 0 11 5 11 10 0 6 -2 10 -4 10 -3 0
-8 -4 -11 -10z"/>
<path d="M3325 2990 c-3 -6 1 -7 9 -4 18 7 21 14 7 14 -6 0 -13 -4 -16 -10z"/>
<path d="M3796 2958 c3 -5 10 -6 15 -3 13 9 11 12 -6 12 -8 0 -12 -4 -9 -9z"/>
<path d="M3793 2875 c0 -8 4 -12 9 -9 5 3 6 10 3 15 -9 13 -12 11 -12 -6z"/>
<path d="M3796 2838 c3 -5 10 -6 15 -3 13 9 11 12 -6 12 -8 0 -12 -4 -9 -9z"/>
<path d="M3325 2700 c-3 -5 -1 -10 4 -10 6 0 11 5 11 10 0 6 -2 10 -4 10 -3 0
-8 -4 -11 -10z"/>
<path d="M3325 2670 c-3 -6 1 -7 9 -4 18 7 21 14 7 14 -6 0 -13 -4 -16 -10z"/>
<path d="M3796 2638 c3 -5 10 -6 15 -3 13 9 11 12 -6 12 -8 0 -12 -4 -9 -9z"/>
<path d="M3793 2555 c0 -8 4 -12 9 -9 5 3 6 10 3 15 -9 13 -12 11 -12 -6z"/>
<path d="M3796 2518 c3 -5 10 -6 15 -3 13 9 11 12 -6 12 -8 0 -12 -4 -9 -9z"/>
<path d="M3796 2398 c3 -5 10 -6 15 -3 13 9 11 12 -6 12 -8 0 -12 -4 -9 -9z"/>
<path d="M3793 2315 c0 -8 4 -12 9 -9 5 3 6 10 3 15 -9 13 -12 11 -12 -6z"/>
<path d="M3796 2278 c3 -5 10 -6 15 -3 13 9 11 12 -6 12 -8 0 -12 -4 -9 -9z"/>
<path d="M3325 2220 c-3 -5 -1 -10 4 -10 6 0 11 5 11 10 0 6 -2 10 -4 10 -3 0
-8 -4 -11 -10z"/>
<path d="M3325 2190 c-3 -6 1 -7 9 -4 18 7 21 14 7 14 -6 0 -13 -4 -16 -10z"/>
<path d="M3796 2158 c3 -5 10 -6 15 -3 13 9 11 12 -6 12 -8 0 -12 -4 -9 -9z"/>
<path d="M3793 2075 c0 -8 4 -12 9 -9 5 3 6 10 3 15 -9 13 -12 11 -12 -6z"/>
<path d="M3796 2038 c3 -5 10 -6 15 -3 13 9 11 12 -6 12 -8 0 -12 -4 -9 -9z"/>
<path d="M3796 1918 c3 -5 10 -6 15 -3 13 9 11 12 -6 12 -8 0 -12 -4 -9 -9z"/>
<path d="M3793 1835 c0 -8 4 -12 9 -9 5 3 6 10 3 15 -9 13 -12 11 -12 -6z"/>
<path d="M3796 1798 c3 -5 10 -6 15 -3 13 9 11 12 -6 12 -8 0 -12 -4 -9 -9z"/>
<path d="M3325 1740 c-3 -5 -1 -10 4 -10 6 0 11 5 11 10 0 6 -2 10 -4 10 -3 0
-8 -4 -11 -10z"/>
<path d="M3325 1710 c-3 -6 1 -7 9 -4 18 7 21 14 7 14 -6 0 -13 -4 -16 -10z"/>
<path d="M3796 1678 c3 -5 10 -6 15 -3 13 9 11 12 -6 12 -8 0 -12 -4 -9 -9z"/>
<path d="M3793 1595 c0 -8 4 -12 9 -9 5 3 6 10 3 15 -9 13 -12 11 -12 -6z"/>
<path d="M3796 1558 c3 -5 10 -6 15 -3 13 9 11 12 -6 12 -8 0 -12 -4 -9 -9z"/>
<path d="M3794 1469 c-3 -6 -2 -15 3 -20 5 -5 9 -1 9 11 0 23 -2 24 -12 9z"/>
<path d="M3796 1413 c-6 -14 -5 -15 5 -6 7 7 10 15 7 18 -3 3 -9 -2 -12 -12z"/>
<path d="M3793 1375 c0 -8 4 -12 9 -9 4 3 8 9 8 15 0 5 -4 9 -8 9 -5 0 -9 -7
-9 -15z"/>
<path d="M3796 1333 c-6 -14 -5 -15 5 -6 7 7 10 15 7 18 -3 3 -9 -2 -12 -12z"/>
<path d="M3793 1295 c0 -8 4 -12 9 -9 4 3 8 9 8 15 0 5 -4 9 -8 9 -5 0 -9 -7
-9 -15z"/>
<path d="M3325 1260 c-3 -5 -1 -10 4 -10 6 0 11 5 11 10 0 6 -2 10 -4 10 -3 0
-8 -4 -11 -10z"/>
<path d="M3796 1253 c-6 -14 -5 -15 5 -6 7 7 10 15 7 18 -3 3 -9 -2 -12 -12z"/>
<path d="M3325 1230 c-3 -6 1 -7 9 -4 18 7 21 14 7 14 -6 0 -13 -4 -16 -10z"/>
<path d="M3793 1215 c0 -8 4 -12 9 -9 4 3 8 9 8 15 0 5 -4 9 -8 9 -5 0 -9 -7
-9 -15z"/>
<path d="M3796 1173 c-6 -14 -5 -15 5 -6 7 7 10 15 7 18 -3 3 -9 -2 -12 -12z"/>
<path d="M3793 1135 c0 -8 4 -12 9 -9 4 3 8 9 8 15 0 5 -4 9 -8 9 -5 0 -9 -7
-9 -15z"/>
<path d="M3323 1105 c0 -8 4 -12 9 -9 5 3 6 10 3 15 -9 13 -12 11 -12 -6z"/>
<path d="M3796 1093 c-6 -14 -5 -15 5 -6 7 7 10 15 7 18 -3 3 -9 -2 -12 -12z"/>
<path d="M3793 1055 c0 -8 4 -12 9 -9 4 3 8 9 8 15 0 5 -4 9 -8 9 -5 0 -9 -7
-9 -15z"/>
<path d="M3796 1013 c-6 -14 -5 -15 5 -6 7 7 10 15 7 18 -3 3 -9 -2 -12 -12z"/>
<path d="M3793 975 c0 -8 4 -12 9 -9 4 3 8 9 8 15 0 5 -4 9 -8 9 -5 0 -9 -7
-9 -15z"/>
<path d="M3259 953 c-13 -15 -12 -15 9 -4 23 12 28 21 13 21 -5 0 -15 -7 -22
-17z"/>
<path d="M3796 933 c-6 -14 -5 -15 5 -6 7 7 10 15 7 18 -3 3 -9 -2 -12 -12z"/>
<path d="M3793 895 c0 -8 4 -12 9 -9 4 3 8 9 8 15 0 5 -4 9 -8 9 -5 0 -9 -7
-9 -15z"/>
<path d="M3796 853 c-6 -14 -5 -15 5 -6 7 7 10 15 7 18 -3 3 -9 -2 -12 -12z"/>
<path d="M3025 850 c-2 -3 0 -12 4 -19 6 -10 10 -8 15 5 6 16 8 16 16 4 8 -13
10 -12 10 2 0 11 -7 16 -21 15 -11 -1 -22 -4 -24 -7z"/>
<path d="M2956 823 c-6 -14 -5 -15 5 -6 7 7 10 15 7 18 -3 3 -9 -2 -12 -12z"/>
<path d="M3793 815 c0 -8 4 -12 9 -9 4 3 8 9 8 15 0 5 -4 9 -8 9 -5 0 -9 -7
-9 -15z"/>
<path d="M2761 807 c-8 -10 -7 -14 2 -14 8 0 14 6 14 14 0 7 -1 13 -2 13 -2 0
-8 -6 -14 -13z"/>
<path d="M3796 773 c-6 -14 -5 -15 5 -6 7 7 10 15 7 18 -3 3 -9 -2 -12 -12z"/>
<path d="M2175 730 c-4 -6 -11 -7 -17 -4 -7 4 -8 2 -4 -5 6 -9 11 -9 22 0 14
11 18 19 10 19 -3 0 -8 -5 -11 -10z"/>
<path d="M1630 644 c-24 -15 -16 -14 24 2 15 6 17 4 11 -6 -5 -9 -4 -11 4 -6
11 7 6 26 -7 26 -4 -1 -18 -8 -32 -16z"/>
<path d="M1035 560 c-3 -5 -1 -10 4 -10 6 0 11 5 11 10 0 6 -2 10 -4 10 -3 0
-8 -4 -11 -10z"/>
<path d="M830 536 c0 -2 7 -7 16 -10 8 -3 12 -2 9 4 -6 10 -25 14 -25 6z"/>
<path d="M734 519 c-4 -7 -3 -9 4 -5 5 3 13 0 15 -6 4 -9 6 -10 6 -1 1 17 -16
25 -25 12z"/>
<path d="M655 509 c-4 -6 -5 -12 -2 -15 2 -3 7 2 10 11 7 17 1 20 -8 4z"/>
<path d="M470 495 c0 -2 6 -8 13 -14 10 -8 14 -7 14 2 0 8 -6 14 -14 14 -7 0
-13 -1 -13 -2z"/>
<path d="M3550 458 c0 -4 4 -8 9 -8 6 0 12 4 15 8 3 5 -1 9 -9 9 -8 0 -15 -4
-15 -9z"/>
<path d="M3404 443 c3 -4 0 -13 -6 -22 -10 -12 -7 -12 8 2 11 9 23 16 25 15 2
-2 3 -1 1 1 -1 3 -10 6 -18 7 -9 1 -13 0 -10 -3z"/>
<path d="M2840 365 c0 -2 6 -8 13 -14 10 -8 14 -7 14 2 0 8 -6 14 -14 14 -7 0
-13 -1 -13 -2z"/>
<path d="M2510 316 c0 -2 7 -7 16 -10 8 -3 12 -2 9 4 -6 10 -25 14 -25 6z"/>
<path d="M2270 280 c-13 -8 -12 -10 3 -10 9 0 17 5 17 10 0 12 -1 12 -20 0z"/>
<path d="M2235 271 c-3 -5 -2 -12 3 -15 5 -3 9 1 9 9 0 17 -3 19 -12 6z"/>
<path d="M1746 205 c3 -6 11 -12 18 -12 8 0 12 6 10 12 -3 6 -11 12 -18 12 -8
0 -12 -6 -10 -12z"/>
<path d="M1174 122 c4 -3 14 -7 22 -8 9 -1 13 0 10 4 -4 3 -14 7 -22 8 -9 1
-13 0 -10 -4z"/>
</g>
</svg>
