<?xml version="1.0" standalone="no"?>
<!DOCTYPE svg PUBLIC "-//W3C//DTD SVG 20010904//EN"
 "http://www.w3.org/TR/2001/REC-SVG-20010904/DTD/svg10.dtd">
<svg version="1.0" xmlns="http://www.w3.org/2000/svg"
 width="1111.000000pt" height="1111.000000pt" viewBox="0 0 1111.000000 1111.000000"
 preserveAspectRatio="xMidYMid meet">
<metadata>
Created by potrace 1.11, written by Peter Selinger 2001-2013
</metadata>
<g transform="translate(0.000000,1111.000000) scale(0.100000,-0.100000)"
fill="#000000" stroke="none">
<path d="M3140 8475 c-546 -67 -952 -284 -1184 -632 -86 -129 -127 -222 -179
-403 l-21 -75 -4 -1665 c-3 -1504 -1 -1675 13 -1764 25 -152 69 -288 140 -433
228 -466 652 -747 1265 -838 146 -22 486 -30 635 -16 742 72 1234 468 1398
1126 45 179 47 215 47 865 0 681 0 684 -62 858 -109 311 -327 550 -643 707
-205 102 -419 163 -695 197 -137 17 -573 17 -710 0 -437 -54 -780 -194 -997
-405 l-53 -51 0 680 c0 769 -2 752 80 923 96 200 238 340 458 450 264 133 654
192 1064 162 373 -27 632 -110 823 -262 161 -128 265 -336 265 -532 l0 -53
160 -20 160 -20 6 34 c10 50 -14 231 -42 330 -84 293 -295 531 -598 673 -153
71 -315 118 -542 155 -140 23 -627 28 -784 9z m794 -2409 c217 -36 366 -83
527 -167 249 -131 428 -344 489 -583 19 -75 20 -110 20 -676 0 -646 -2 -681
-56 -852 -37 -119 -123 -280 -198 -374 -289 -361 -792 -509 -1449 -428 -563
69 -959 352 -1120 799 -57 161 -58 169 -55 922 l3 690 47 94 c165 332 523 525
1098 593 92 11 599 -3 694 -18z"/>
<path d="M7375 8484 c-374 -38 -656 -127 -890 -279 -293 -190 -474 -455 -552
-807 -17 -78 -18 -175 -18 -1743 l0 -1660 23 -105 c67 -306 188 -541 382 -743
253 -264 574 -416 1025 -483 141 -21 483 -29 628 -15 242 24 448 78 635 166
402 191 673 550 783 1041 22 95 23 122 27 724 2 447 0 646 -8 700 -28 180
-118 386 -235 542 -240 318 -633 513 -1175 580 -157 19 -593 16 -750 -5 -414
-58 -727 -184 -934 -377 l-67 -63 3 689 c4 770 1 735 78 900 53 114 105 187
196 274 182 173 423 277 761 326 162 24 551 24 713 1 327 -48 543 -136 700
-283 142 -135 206 -281 222 -514 l3 -35 120 -17 c66 -9 137 -19 159 -23 l39
-6 -6 138 c-6 160 -31 264 -97 401 -55 115 -111 191 -211 287 -204 196 -466
310 -849 370 -101 16 -601 29 -705 19z m627 -2409 c587 -69 969 -324 1109
-740 24 -70 24 -72 27 -645 3 -593 -1 -690 -37 -831 -55 -217 -141 -369 -296
-525 -120 -121 -209 -182 -354 -245 -203 -87 -399 -122 -691 -122 -212 1 -315
10 -482 43 -517 105 -869 416 -996 878 l-27 97 0 711 0 711 47 94 c98 197 269
344 523 450 147 62 381 116 570 132 119 11 492 6 607 -8z"/>
</g>
</svg>
