<?xml version="1.0" standalone="no"?>
<!DOCTYPE svg PUBLIC "-//W3C//DTD SVG 20010904//EN"
 "http://www.w3.org/TR/2001/REC-SVG-20010904/DTD/svg10.dtd">
<svg version="1.0" xmlns="http://www.w3.org/2000/svg"
 width="938.000000pt" height="938.000000pt" viewBox="0 0 938.000000 938.000000"
 preserveAspectRatio="xMidYMid meet">
<metadata>
Created by potrace 1.11, written by Peter Selinger 2001-2013
</metadata>
<g transform="translate(0.000000,938.000000) scale(0.100000,-0.100000)"
fill="#000000" stroke="none">
<path d="M1267 9214 c-1 -1 -34 -4 -73 -7 -39 -4 -77 -9 -85 -11 -8 -3 -27 -7
-44 -10 -101 -15 -262 -83 -380 -160 -276 -180 -467 -485 -510 -811 -4 -27 -6
-1616 -6 -3530 0 -3075 2 -3490 15 -3565 70 -389 333 -716 696 -864 77 -32
114 -42 238 -66 87 -16 273 -17 3595 -15 1926 1 3518 5 3537 9 127 26 314 93
380 136 14 9 52 34 85 56 79 51 203 171 264 253 101 136 182 318 208 466 2 17
8 50 13 74 4 24 8 1606 8 3515 0 2850 -3 3487 -14 3561 -71 475 -448 862 -928
950 -82 15 -386 17 -3543 18 -1900 1 -3455 1 -3456 1z"/>
</g>
</svg>
