<?xml version="1.0" standalone="no"?>
<!DOCTYPE svg PUBLIC "-//W3C//DTD SVG 20010904//EN"
 "http://www.w3.org/TR/2001/REC-SVG-20010904/DTD/svg10.dtd">
<svg version="1.0" xmlns="http://www.w3.org/2000/svg"
 width="833.000000pt" height="833.000000pt" viewBox="0 0 833.000000 833.000000"
 preserveAspectRatio="xMidYMid meet">
<metadata>
Created by potrace 1.11, written by Peter Selinger 2001-2013
</metadata>
<g transform="translate(0.000000,833.000000) scale(0.100000,-0.100000)"
fill="#000000" stroke="none">
<path d="M7448 6285 c-1 -1 -52 -6 -113 -10 -60 -4 -116 -8 -125 -10 -9 -2
-61 -6 -115 -10 -55 -4 -116 -8 -135 -10 -19 -2 -73 -6 -120 -10 -47 -4 -101
-8 -120 -10 -19 -2 -73 -6 -120 -10 -47 -3 -101 -8 -120 -10 -19 -1 -71 -6
-115 -9 -44 -4 -102 -9 -130 -11 -27 -2 -88 -7 -135 -11 -47 -4 -98 -8 -115
-9 -16 -2 -70 -6 -120 -10 -49 -3 -106 -8 -125 -10 -19 -2 -73 -7 -120 -10
-47 -4 -101 -8 -120 -10 -19 -2 -73 -6 -120 -10 -47 -3 -101 -8 -120 -10 -19
-2 -75 -7 -125 -10 -49 -4 -106 -8 -125 -10 -19 -2 -78 -6 -130 -10 -52 -4
-107 -9 -123 -11 -16 -2 -66 -6 -110 -9 -45 -3 -102 -7 -127 -10 -25 -2 -76
-7 -115 -10 -71 -6 -138 -11 -242 -20 -32 -3 -89 -7 -128 -10 -38 -3 -92 -7
-120 -10 -27 -2 -86 -7 -130 -10 -44 -4 -98 -8 -120 -10 -81 -9 -223 -20 -365
-30 -41 -3 -93 -7 -115 -10 -22 -2 -80 -7 -130 -10 -49 -4 -101 -8 -115 -10
-14 -2 -68 -6 -120 -10 -52 -4 -113 -9 -135 -11 -46 -4 -142 -12 -230 -19 -58
-4 -153 -12 -245 -20 -25 -2 -83 -7 -130 -10 -47 -3 -101 -8 -120 -10 -19 -2
-73 -7 -120 -10 -47 -4 -101 -8 -120 -10 -19 -2 -73 -7 -120 -10 -47 -3 -101
-8 -120 -10 -19 -3 -73 -7 -120 -10 -47 -3 -105 -7 -130 -10 -65 -6 -154 -14
-235 -20 -164 -12 -197 -26 -225 -92 -5 -13 -12 -105 -15 -205 -3 -101 -7
-255 -10 -343 -3 -88 -7 -245 -10 -350 -3 -104 -8 -257 -10 -340 -8 -254 -15
-472 -20 -670 -3 -104 -7 -255 -10 -335 -8 -251 -16 -560 -20 -695 -2 -71 -6
-239 -10 -372 -4 -133 -4 -256 0 -272 7 -34 51 -70 87 -73 12 0 55 2 93 6 39
4 95 9 125 11 30 2 82 7 115 10 94 9 153 14 240 20 44 3 96 8 115 10 42 5 142
14 230 20 36 3 88 7 115 10 49 5 88 8 235 20 41 3 95 8 120 10 25 3 74 7 110
10 36 3 88 7 115 10 28 3 79 7 115 10 119 10 335 28 470 40 30 3 87 7 125 11
39 3 88 7 110 9 22 2 74 6 115 10 41 3 95 8 120 10 25 2 79 7 120 10 41 4 91
8 110 10 19 2 73 6 120 9 47 4 101 9 120 11 19 3 70 7 113 10 42 3 94 7 115 9
20 3 73 7 117 11 44 3 96 8 115 10 19 3 71 7 115 10 143 11 178 14 240 20 69
6 144 13 232 20 35 3 91 8 125 11 69 7 116 10 228 19 41 3 95 8 120 10 25 2
78 7 119 10 40 3 90 8 110 10 20 2 72 6 116 10 44 4 96 8 115 10 40 4 172 15
240 20 25 2 77 6 115 10 98 9 137 12 240 20 50 3 101 8 115 10 14 3 61 7 105
10 44 3 100 8 125 10 25 3 77 7 115 10 39 3 90 8 115 10 25 2 77 7 115 10 39
4 86 8 105 10 19 2 76 7 125 10 117 9 127 10 164 29 65 34 64 28 63 571 -2
698 -13 2755 -15 2910 -3 167 -16 193 -100 200 -25 2 -47 2 -49 0z m-133 -219
c60 -40 75 -112 38 -186 -18 -37 -34 -54 -67 -69 -74 -36 -132 -24 -173 38
-83 123 80 297 202 217z m-6099 -493 c70 -46 71 -169 2 -228 -60 -52 -120 -60
-175 -22 -58 39 -72 109 -36 184 37 80 139 112 209 66z m4530 -338 c132 -38
244 -144 275 -258 16 -58 12 -230 -6 -273 -33 -78 -197 -92 -238 -20 -6 12
-12 53 -13 92 -2 105 -10 137 -47 172 -57 55 -168 64 -265 22 -51 -23 -65 -36
-92 -88 -18 -34 -21 -59 -22 -164 -2 -137 5 -158 54 -184 28 -15 40 -15 102
-3 98 18 153 18 217 2 128 -32 243 -121 295 -228 28 -58 29 -64 30 -229 1
-131 -2 -183 -16 -237 -47 -183 -161 -316 -320 -372 -67 -23 -103 -29 -197
-29 -194 -2 -375 137 -434 334 -21 67 -21 82 -16 536 6 422 8 474 26 544 11
42 30 96 42 120 76 150 213 253 366 274 26 3 49 7 51 9 9 9 160 -6 208 -20z
m-1259 -126 c137 -66 214 -216 213 -414 -2 -270 -11 -329 -63 -411 -57 -91
-131 -139 -347 -224 -172 -67 -221 -96 -263 -156 -36 -51 -47 -146 -22 -194
27 -53 54 -63 147 -56 46 4 97 9 113 11 17 2 57 7 90 9 154 13 205 18 222 20
31 5 72 -15 93 -44 26 -37 27 -122 2 -170 -30 -56 -77 -73 -237 -85 -82 -6
-178 -15 -215 -20 -30 -3 -97 -9 -230 -20 -19 -2 -68 -6 -109 -9 -92 -8 -125
4 -151 54 -18 34 -19 57 -16 253 4 238 12 280 72 374 58 91 156 158 345 234
149 61 173 73 215 111 64 59 76 101 78 268 1 136 -1 151 -20 177 -39 52 -78
71 -146 71 -79 -1 -122 -13 -174 -49 -59 -41 -84 -96 -84 -190 0 -124 -46
-179 -153 -184 -103 -5 -122 28 -115 196 3 87 8 114 31 163 66 144 183 246
340 296 139 45 278 41 384 -11z m-1389 -144 c28 -33 27 -15 18 -385 -3 -135
-8 -364 -12 -510 -3 -146 -7 -292 -9 -325 -7 -131 27 -175 132 -175 105 0 142
-31 143 -120 0 -105 -56 -150 -205 -165 -33 -3 -76 -8 -95 -10 -19 -2 -71 -7
-115 -11 -44 -3 -98 -8 -120 -10 -22 -2 -83 -7 -135 -10 l-96 -7 -27 32 c-34
40 -36 105 -7 165 24 49 66 78 137 95 58 14 112 64 114 104 1 12 3 40 4 61 2
22 6 130 9 240 3 111 9 282 12 381 3 99 7 214 8 255 4 131 -26 172 -125 169
-90 -3 -129 33 -129 117 0 67 41 111 110 120 53 6 128 13 210 20 47 3 86 8 88
9 10 9 70 -18 90 -40z m4188 -1871 c122 -58 74 -261 -65 -280 -58 -8 -105 16
-131 67 -63 122 75 270 196 213z m-6189 -522 c26 -4 73 -56 83 -93 35 -127
-109 -245 -218 -179 -79 48 -77 180 3 240 42 32 74 39 132 32z"/>
<path d="M5501 4270 c-69 -23 -115 -63 -146 -128 -11 -22 -17 -68 -19 -147 -3
-102 -1 -121 19 -163 44 -94 113 -129 216 -110 92 17 158 62 185 128 22 51 23
284 1 325 -48 94 -150 131 -256 95z"/>
</g>
</svg>
