<?xml version="1.0" standalone="no"?>
<!DOCTYPE svg PUBLIC "-//W3C//DTD SVG 20010904//EN"
 "http://www.w3.org/TR/2001/REC-SVG-20010904/DTD/svg10.dtd">
<svg version="1.0" xmlns="http://www.w3.org/2000/svg"
 width="400.000000pt" height="400.000000pt" viewBox="0 0 400.000000 400.000000"
 preserveAspectRatio="xMidYMid meet">
<metadata>
Created by potrace 1.11, written by Peter Selinger 2001-2013
</metadata>
<g transform="translate(0.000000,400.000000) scale(0.100000,-0.100000)"
fill="#000000" stroke="none">
<path d="M2887 3844 c-42 -7 -101 -15 -130 -18 -28 -3 -63 -8 -77 -10 -48 -9
-245 -38 -275 -41 -34 -3 -104 -13 -144 -19 -14 -3 -62 -10 -107 -16 -44 -6
-89 -12 -100 -14 -10 -2 -46 -7 -79 -11 -77 -10 -63 -8 -315 -45 -268 -39
-254 -37 -353 -50 -45 -6 -93 -13 -107 -15 -14 -2 -47 -7 -75 -10 -27 -4 -77
-10 -110 -15 -85 -13 -104 -16 -350 -50 -121 -17 -241 -38 -266 -46 -61 -19
-118 -70 -149 -130 l-25 -49 0 -1300 c0 -1264 1 -1301 19 -1339 25 -50 88
-112 135 -132 43 -19 139 -26 201 -14 25 4 70 11 100 15 30 3 62 8 70 10 8 2
39 7 69 10 30 4 61 8 70 10 9 1 39 6 66 9 59 8 59 8 285 41 96 13 198 27 225
30 28 3 57 8 65 10 8 2 33 6 55 9 126 16 164 22 225 32 25 4 48 7 52 6 4 -1
31 3 60 8 29 5 73 12 98 15 49 6 115 16 141 20 9 2 40 6 70 10 30 3 79 10 109
15 30 5 78 12 105 15 94 12 110 15 135 19 14 3 50 8 80 11 30 3 62 8 70 10 8
2 40 7 70 10 30 3 62 7 70 10 8 2 38 6 65 10 28 3 64 8 80 11 17 2 44 6 60 8
85 11 169 76 206 159 l23 52 0 1285 c-1 1276 -1 1285 -21 1330 -28 60 -77 108
-140 137 -58 27 -118 29 -256 7z m162 -233 c11 -7 13 -211 13 -1241 0 -890 -3
-1235 -11 -1243 -11 -11 -14 -12 -91 -22 -25 -3 -52 -8 -60 -10 -8 -2 -40 -6
-71 -10 -31 -3 -65 -7 -75 -9 -21 -4 -100 -15 -154 -22 -34 -4 -64 -9 -125
-18 -57 -9 -100 -15 -150 -21 -27 -4 -122 -17 -210 -30 -88 -13 -185 -26 -215
-30 -30 -3 -62 -8 -70 -10 -8 -2 -39 -7 -69 -10 -30 -4 -62 -8 -71 -10 -9 -2
-41 -6 -71 -10 -30 -3 -61 -8 -69 -10 -8 -2 -40 -7 -70 -10 -30 -4 -147 -20
-260 -36 -113 -16 -223 -32 -245 -34 -22 -3 -51 -8 -65 -10 -14 -3 -43 -7 -65
-10 -40 -4 -63 -8 -180 -25 -33 -5 -82 -12 -110 -15 -27 -4 -51 -8 -54 -10 -2
-2 -11 0 -21 5 -16 9 -17 84 -17 1245 0 896 3 1237 11 1244 9 7 72 18 211 36
44 6 256 36 285 40 14 2 45 7 70 10 25 3 52 8 60 10 8 2 40 6 71 10 31 3 67 8
80 10 12 3 45 7 73 10 28 3 58 7 66 10 8 2 38 6 65 9 53 7 189 26 216 31 9 2
40 6 70 10 30 3 81 10 114 15 33 5 76 12 95 14 19 3 98 14 175 25 172 25 212
30 261 36 22 3 52 8 68 11 15 3 45 8 65 9 42 4 269 37 351 51 14 2 52 7 85 10
33 4 62 8 64 10 7 6 15 5 30 -5z"/>
<path d="M2411 3098 c-25 -4 -62 -10 -84 -13 -70 -11 -165 -45 -196 -71 -17
-14 -43 -51 -58 -82 -25 -51 -28 -69 -31 -177 -4 -172 1 -178 123 -162 102 13
105 16 105 128 0 36 6 73 13 82 13 19 89 44 125 41 12 -1 29 -2 37 -3 27 -2
38 -47 51 -196 14 -165 4 -207 -53 -226 -49 -16 -56 -31 -54 -119 3 -129 8
-140 69 -140 48 0 72 -29 73 -92 1 -29 3 -71 5 -93 3 -56 7 -206 5 -232 -1
-25 -63 -58 -134 -72 -66 -12 -82 2 -97 86 -15 88 -19 92 -78 82 -26 -5 -61
-11 -79 -14 -53 -9 -60 -23 -57 -117 4 -113 11 -147 39 -190 45 -69 130 -101
220 -85 17 3 50 9 75 12 140 19 221 59 282 140 39 52 52 101 52 195 -1 138
-17 411 -25 450 -6 25 -12 149 -14 275 -7 396 -15 458 -69 523 -60 71 -128 90
-245 70z"/>
<path d="M1557 2933 c-59 -12 -122 -32 -140 -44 -44 -29 -93 -95 -106 -144
-12 -44 -10 -263 3 -283 11 -19 165 -6 188 15 15 13 18 33 18 102 1 82 2 87
28 106 34 25 162 35 179 13 14 -16 26 -149 27 -290 1 -113 -6 -134 -49 -141
-52 -8 -57 -19 -56 -111 1 -48 6 -95 12 -105 7 -9 31 -23 55 -29 24 -6 48 -20
53 -30 14 -27 28 -315 17 -372 -10 -59 -27 -75 -93 -87 -56 -10 -104 -6 -121
11 -8 8 -19 43 -24 76 -4 34 -11 66 -14 72 -9 14 -169 -7 -192 -25 -16 -12
-14 -125 3 -209 22 -110 106 -176 209 -164 28 4 71 9 96 12 96 11 155 25 196
45 76 36 136 122 150 214 13 87 7 412 -10 515 -11 67 -13 113 -7 155 9 60 8
146 -4 365 -10 189 -23 242 -70 298 -59 68 -150 78 -348 35z"/>
<path d="M1086 2828 c-47 -10 -66 -24 -66 -49 0 -30 -37 -43 -66 -24 -30 19
-38 15 -96 -58 l-38 -49 2 -140 c1 -107 4 -141 15 -145 7 -3 38 15 69 41 31
25 60 43 65 40 5 -3 8 -29 7 -57 -1 -29 1 -97 5 -152 4 -55 10 -158 12 -230 3
-71 7 -182 10 -245 3 -63 7 -171 10 -240 12 -284 15 -334 25 -344 25 -25 165
-5 198 28 14 14 17 141 7 301 -1 28 -5 100 -9 160 -4 61 -9 142 -11 180 -3 39
-8 149 -11 245 -3 96 -7 198 -9 225 -2 28 -6 122 -10 210 -4 88 -8 180 -10
205 -2 25 -4 52 -5 60 -2 40 -31 52 -94 38z"/>
<path d="M3547 3598 c-10 -5 -12 -332 -12 -1429 0 -1522 2 -1448 -48 -1450
-12 0 -31 -2 -42 -4 -11 -2 -57 -8 -102 -14 -45 -7 -90 -13 -100 -15 -10 -2
-40 -7 -68 -10 -44 -6 -219 -31 -285 -41 -14 -2 -50 -7 -80 -10 -30 -4 -62 -9
-70 -10 -8 -2 -37 -6 -65 -9 -27 -4 -63 -9 -80 -11 -16 -3 -95 -14 -175 -25
-80 -11 -156 -22 -170 -25 -14 -2 -50 -7 -80 -11 -30 -4 -64 -8 -75 -10 -11
-1 -49 -7 -85 -13 -36 -5 -87 -13 -115 -16 -27 -4 -61 -8 -75 -10 -67 -10
-250 -36 -285 -41 -22 -2 -51 -7 -65 -9 -14 -3 -45 -7 -70 -10 -25 -3 -56 -7
-70 -10 -14 -2 -43 -7 -65 -10 -22 -2 -74 -10 -115 -15 -41 -6 -93 -13 -115
-16 -74 -10 -73 -7 -45 -179 5 -33 10 -63 10 -67 0 -7 31 -4 165 17 50 8 115
17 145 20 30 3 62 8 70 10 8 2 39 7 69 10 30 4 62 8 71 10 9 2 41 6 70 10 29
4 62 8 73 11 10 2 45 6 76 10 31 3 58 8 61 9 3 2 37 6 75 10 39 4 79 9 90 11
11 3 52 9 90 14 39 6 81 12 95 14 14 2 48 7 75 11 93 12 120 16 175 25 30 5
80 12 110 15 30 4 111 15 180 25 69 10 148 22 175 26 28 3 57 8 66 9 9 2 40 6
70 10 30 3 79 10 109 15 30 5 78 11 105 15 28 3 75 10 105 15 30 6 78 12 105
15 92 11 158 23 190 35 50 19 105 73 135 133 l30 60 0 1453 0 1454 -22 1
c-102 4 -201 3 -211 -3z"/>
</g>
</svg>
