<?xml version="1.0" standalone="no"?>
<!DOCTYPE svg PUBLIC "-//W3C//DTD SVG 20010904//EN"
 "http://www.w3.org/TR/2001/REC-SVG-20010904/DTD/svg10.dtd">
<svg version="1.0" xmlns="http://www.w3.org/2000/svg"
 width="521.000000pt" height="521.000000pt" viewBox="0 0 521.000000 521.000000"
 preserveAspectRatio="xMidYMid meet">
<metadata>
Created by potrace 1.11, written by Peter Selinger 2001-2013
</metadata>
<g transform="translate(0.000000,521.000000) scale(0.100000,-0.100000)"
fill="#000000" stroke="none">
<path d="M2573 4626 l-1663 -111 0 -2017 0 -2018 58 6 c31 2 761 43 1622 89
861 47 1598 87 1638 91 l72 6 0 2034 0 2034 -32 -1 c-18 -1 -781 -51 -1695
-113z m1470 -126 c77 -61 9 -181 -83 -148 -38 13 -64 59 -55 99 8 36 49 69 85
69 15 0 39 -9 53 -20z m-2812 -189 c36 -36 38 -79 7 -115 -35 -40 -78 -43
-116 -11 -45 38 -45 92 -1 129 40 34 74 33 110 -3z m2444 -34 c39 -80 122
-163 208 -207 l67 -35 0 -1351 0 -1352 -55 -27 c-111 -54 -210 -172 -246 -293
-9 -31 -17 -42 -32 -42 -29 0 -1926 -118 -2018 -126 l-77 -6 -12 36 c-33 100
-157 245 -254 296 l-46 25 0 1332 0 1332 72 47 c95 61 187 151 240 233 23 36
43 68 44 69 4 5 1924 130 2009 130 l70 1 30 -62z m376 -3286 c36 -36 37 -70 3
-110 -20 -25 -34 -31 -64 -31 -30 0 -44 6 -64 31 -34 40 -33 74 3 110 40 39
82 39 122 0z m-2813 -138 c33 -36 30 -85 -9 -117 -61 -52 -139 -17 -139 62 0
82 92 116 148 55z"/>
<path d="M2562 3817 c-20 -21 -22 -34 -22 -136 0 -102 -4 -125 -44 -264 -61
-213 -140 -365 -365 -702 l-181 -270 0 -146 c0 -129 2 -148 18 -162 16 -15 50
-17 275 -17 l257 0 0 -195 c0 -162 -3 -200 -17 -230 l-17 -35 -76 0 c-67 0
-79 -3 -98 -23 -18 -19 -22 -35 -22 -94 0 -110 -24 -103 382 -103 408 0 381
-9 376 116 -3 77 -4 79 -36 99 -18 11 -47 29 -65 40 l-32 21 -3 220 -2 220 25
24 c24 23 25 27 25 166 0 140 0 143 -25 162 l-25 20 0 295 0 295 -31 11 c-18
6 -33 11 -35 11 -1 0 -74 -91 -161 -202 l-158 -203 -5 -130 -5 -130 -117 -3
c-65 -1 -118 1 -118 5 0 4 71 106 158 225 112 153 205 297 315 486 l157 269 0
175 c0 157 -2 177 -18 191 -15 14 -42 17 -154 17 -128 0 -136 -1 -156 -23z"/>
</g>
</svg>
