<?xml version="1.0" standalone="no"?>
<!DOCTYPE svg PUBLIC "-//W3C//DTD SVG 20010904//EN"
 "http://www.w3.org/TR/2001/REC-SVG-20010904/DTD/svg10.dtd">
<svg version="1.0" xmlns="http://www.w3.org/2000/svg"
 width="1024.000000pt" height="1024.000000pt" viewBox="0 0 1024.000000 1024.000000"
 preserveAspectRatio="xMidYMid meet">
<metadata>
Created by potrace 1.11, written by Peter Selinger 2001-2013
</metadata>
<g transform="translate(0.000000,1024.000000) scale(0.100000,-0.100000)"
fill="#000000" stroke="none">
<path d="M8277 7889 c-980 -42 -6111 -449 -6551 -519 -368 -59 -626 -242 -704
-500 -36 -118 -52 -321 -77 -955 -9 -214 -20 -496 -25 -625 -19 -462 -32
-1062 -34 -1485 -1 -409 0 -435 21 -530 40 -181 122 -310 247 -390 45 -29 57
-42 70 -82 39 -117 152 -244 269 -301 182 -90 302 -96 952 -48 2480 184 5204
401 6030 482 347 33 423 46 486 80 108 59 219 223 253 374 21 91 34 253 46
550 6 140 17 408 25 595 52 1203 82 2362 66 2512 -37 328 -166 533 -369 583
-65 17 -68 19 -95 69 -37 67 -85 114 -147 146 -93 47 -188 56 -463 44z m754
-435 c130 -90 198 -342 184 -689 -3 -82 -10 -350 -16 -595 -10 -470 -26 -937
-59 -1700 -11 -256 -22 -528 -25 -605 -9 -215 -24 -384 -40 -447 -30 -121
-110 -240 -186 -279 -61 -31 -342 -60 -1589 -164 -1163 -97 -2261 -183 -4685
-366 -775 -59 -893 -57 -1052 16 -58 26 -138 96 -167 145 l-18 32 28 -5 c117
-23 121 -23 1344 73 3206 253 5623 462 5771 501 126 32 263 355 304 718 37
329 115 2558 115 3304 l0 107 28 -11 c15 -5 43 -21 63 -35z m-1741 -644 c188
-17 294 -58 389 -153 64 -64 93 -112 121 -206 20 -64 22 -88 17 -190 -9 -196
-65 -356 -172 -488 -56 -69 -81 -128 -70 -163 3 -10 28 -35 54 -55 175 -128
280 -331 268 -520 -6 -103 -20 -137 -136 -330 -156 -260 -288 -376 -523 -460
-143 -51 -236 -68 -378 -69 -250 -1 -430 69 -585 228 -160 165 -180 320 -51
392 54 31 188 58 249 50 59 -6 93 -34 136 -112 83 -146 246 -203 454 -159 190
40 321 165 358 343 38 183 -39 335 -209 415 -60 28 -79 32 -197 38 -142 7
-168 14 -205 54 -49 52 -37 252 17 297 9 7 43 18 76 25 75 15 164 57 260 121
140 95 198 191 200 327 1 115 -33 195 -100 241 -77 52 -285 38 -416 -28 -71
-35 -120 -84 -180 -176 -25 -39 -65 -85 -88 -102 -150 -108 -379 -62 -379 76
0 86 108 275 219 384 124 122 321 196 590 220 126 11 154 11 281 0z m-1716
-258 c16 -51 27 -203 37 -549 20 -663 -18 -1806 -62 -1859 -5 -6 -54 -19 -110
-29 -107 -18 -230 -17 -281 3 l-28 12 0 202 c0 112 7 332 15 491 25 488 29
727 16 937 -7 107 -16 198 -20 202 -10 11 -193 -74 -252 -118 -63 -46 -118
-51 -191 -16 -49 24 -58 40 -58 108 0 90 65 171 181 221 113 50 215 131 305
245 73 91 135 121 304 146 69 11 128 20 132 21 4 0 9 -7 12 -17z"/>
</g>
</svg>
