<?xml version="1.0" standalone="no"?>
<!DOCTYPE svg PUBLIC "-//W3C//DTD SVG 20010904//EN"
 "http://www.w3.org/TR/2001/REC-SVG-20010904/DTD/svg10.dtd">
<svg version="1.0" xmlns="http://www.w3.org/2000/svg"
 width="833.000000pt" height="833.000000pt" viewBox="0 0 833.000000 833.000000"
 preserveAspectRatio="xMidYMid meet">
<metadata>
Created by potrace 1.11, written by Peter Selinger 2001-2013
</metadata>
<g transform="translate(0.000000,833.000000) scale(0.100000,-0.100000)"
fill="#000000" stroke="none">
<path d="M2595 6364 c-49 -13 -146 -67 -137 -76 6 -6 59 -16 119 -24 254 -32
252 -31 301 -62 26 -17 64 -37 84 -45 38 -16 58 -42 58 -76 0 -12 4 -21 9 -21
11 0 71 67 71 80 0 5 8 14 18 19 16 8 14 -3 -14 -72 -19 -45 -34 -93 -34 -107
0 -38 22 -73 49 -80 14 -3 26 -10 28 -17 5 -13 -61 -2 -94 15 -30 17 -39 15
-63 -10 l-20 -22 11 33 c15 41 0 62 -31 43 -15 -9 -25 -9 -45 0 -14 6 -25 15
-25 19 0 8 81 49 98 49 20 0 14 17 -8 23 -14 3 -20 14 -20 31 0 19 -5 26 -18
26 -11 0 -24 11 -30 25 -9 20 -19 25 -49 25 -24 0 -45 8 -61 23 -20 17 -24 18
-19 5 8 -23 -28 -48 -67 -48 -20 0 -39 11 -62 33 -25 27 -44 36 -86 42 -107
15 -120 13 -145 -24 -44 -65 -25 -109 55 -126 36 -7 40 -29 10 -49 -14 -8 -22
-8 -35 2 -10 7 -30 17 -45 23 -26 10 -28 15 -28 72 l-1 62 -18 -23 c-11 -12
-22 -40 -26 -62 -13 -77 -76 -140 -128 -127 -33 9 -43 41 -23 72 21 32 20 35
-5 35 -12 0 -37 -16 -55 -35 -36 -38 -111 -181 -101 -191 4 -4 18 1 32 10 39
26 48 12 42 -62 -6 -62 -19 -92 -39 -92 -5 0 -24 16 -41 35 -17 19 -39 35 -48
35 -19 0 -45 -32 -78 -97 -28 -57 -27 -79 7 -95 18 -9 31 -27 40 -53 7 -22 29
-55 48 -73 l36 -33 -26 -20 c-14 -11 -26 -27 -26 -35 0 -8 -5 -12 -10 -9 -14
9 -50 -4 -50 -17 0 -6 11 -21 25 -34 30 -28 31 -39 5 -81 -27 -44 -48 -43 -55
5 -3 20 -14 65 -25 99 -11 34 -20 79 -20 100 l-1 38 -32 -63 c-21 -39 -44 -70
-65 -82 -18 -11 -37 -32 -43 -47 -6 -16 -19 -44 -29 -63 -10 -19 -21 -58 -25
-87 -6 -47 -4 -55 19 -78 21 -21 34 -25 81 -25 51 0 55 -2 55 -24 0 -13 -7
-40 -15 -60 -14 -32 -18 -35 -36 -25 -17 9 -25 7 -44 -11 -20 -19 -32 -21 -98
-19 -42 2 -79 1 -81 -2 -6 -5 -126 -345 -126 -355 0 -2 5 -4 10 -4 6 0 10 6
10 13 0 7 6 22 14 32 14 19 15 19 51 2 20 -10 45 -15 55 -12 19 6 22 -6 36
-135 l7 -65 -23 20 -23 20 6 -35 c18 -99 18 -135 -1 -175 l-19 -40 -21 70
c-12 39 -24 81 -26 95 -7 35 -40 54 -65 38 -11 -7 -25 -22 -32 -35 -7 -13 -18
-23 -24 -23 -56 0 -138 -560 -114 -780 5 -47 13 -141 19 -210 13 -159 29 -275
41 -308 5 -14 23 -40 38 -58 16 -18 32 -43 36 -56 4 -13 18 -35 31 -49 26 -27
144 -260 144 -283 0 -27 214 -200 286 -230 17 -8 46 -27 65 -43 19 -17 57 -40
84 -53 207 -93 260 -113 345 -131 100 -21 239 -24 318 -8 78 17 414 146 552
213 118 57 148 77 234 155 110 100 142 141 221 282 67 118 74 145 84 340 8
136 13 167 41 249 34 99 35 126 5 196 l-17 39 -16 -23 c-9 -12 -38 -49 -64
-82 -25 -32 -52 -76 -58 -96 -12 -35 -10 -127 6 -251 l6 -51 -64 -64 c-72 -71
-100 -128 -118 -245 -19 -117 -66 -169 -148 -166 -81 3 -89 -1 -126 -76 -19
-37 -49 -80 -66 -95 -28 -23 -40 -26 -103 -26 -75 0 -87 -5 -161 -63 -88 -71
-217 -25 -146 51 17 18 32 22 85 22 35 0 66 4 69 9 4 5 25 12 49 16 69 12 107
38 195 134 46 50 113 113 149 140 121 91 177 176 193 293 8 54 25 104 68 193
l57 120 0 105 c0 100 2 108 33 165 41 73 39 90 -25 200 -43 75 -46 86 -54 180
-5 59 -20 138 -37 193 -27 89 -29 92 -43 71 -14 -21 -17 -21 -40 -7 -13 9 -49
23 -80 32 -61 17 -81 34 -103 87 -8 20 -40 57 -70 83 -55 47 -55 47 -98 35
-97 -26 -122 -55 -88 -101 29 -39 25 -68 -16 -110 -38 -41 -64 -47 -84 -23
-11 13 -10 18 8 31 14 10 22 26 22 45 0 17 7 44 16 61 19 37 9 68 -30 93 -37
25 -62 12 -75 -40 -9 -38 -8 -48 8 -77 10 -18 22 -47 26 -65 6 -28 3 -34 -24
-47 -39 -21 -57 -20 -66 2 -6 14 -10 10 -19 -18 -9 -25 -23 -41 -50 -54 -20
-10 -39 -16 -41 -14 -3 2 5 32 16 65 19 56 20 66 8 105 -12 38 -18 43 -47 46
-22 2 -48 -5 -76 -22 -41 -24 -54 -43 -72 -106 -4 -14 -18 -42 -31 -63 -37
-59 -39 -89 -7 -107 19 -10 33 -31 44 -65 16 -48 18 -50 61 -57 24 -3 82 -7
127 -7 68 -1 89 -5 109 -21 14 -11 39 -20 54 -20 24 0 31 -7 44 -37 12 -28 18
-34 27 -25 7 7 26 12 43 12 25 0 35 -6 48 -32 10 -18 31 -55 48 -81 26 -40 30
-53 21 -71 -8 -17 -5 -27 13 -49 40 -46 46 -189 10 -244 -8 -12 -11 -24 -6
-27 15 -10 22 -91 12 -137 -7 -31 -7 -53 1 -76 11 -30 10 -34 -18 -55 -58 -46
-73 -67 -94 -138 -15 -52 -18 -76 -11 -83 34 -34 -22 -100 -145 -173 -52 -30
-98 -63 -103 -72 -4 -9 -14 -41 -21 -70 -6 -28 -16 -55 -21 -58 -14 -8 -74 33
-107 73 -27 35 -30 36 -62 24 -27 -9 -38 -8 -57 4 -13 9 -21 20 -18 25 7 12
72 12 140 0 45 -7 52 -6 74 15 16 15 24 35 25 60 1 31 -5 42 -35 67 -30 24
-49 31 -100 35 -35 3 -71 12 -80 20 -14 12 -18 11 -29 -3 -8 -8 -35 -26 -61
-40 -61 -30 -66 -40 -40 -75 11 -15 21 -42 21 -58 0 -25 -5 -31 -35 -41 -83
-27 -109 -112 -54 -174 59 -68 13 -104 -49 -38 -49 53 -65 60 -158 68 -43 4
-87 11 -97 16 -23 12 -56 83 -57 121 0 23 4 27 27 27 l26 0 -23 24 c-23 26
-22 52 4 62 18 7 146 -59 178 -91 13 -13 30 -33 39 -46 15 -21 19 -22 43 -11
36 16 46 48 46 142 0 74 2 80 26 97 57 39 76 62 68 86 -10 36 -21 42 -49 27
-22 -12 -28 -11 -52 6 -30 23 -56 88 -48 122 4 18 1 22 -17 22 -12 0 -32 10
-45 22 -28 27 -41 17 -20 -16 18 -27 13 -36 -19 -36 -15 0 -44 20 -80 57 -53
54 -57 56 -70 38 -19 -26 -27 -14 -32 50 -5 64 12 79 58 51 36 -21 52 -20 81
3 22 18 22 21 9 60 -7 22 -30 63 -51 91 -20 27 -45 71 -55 97 -25 69 -46 90
-78 75 -25 -11 -25 -12 -19 -106 3 -52 3 -102 -1 -113 -7 -17 -9 -17 -26 5
-15 18 -17 33 -13 75 3 29 0 70 -6 92 -10 35 -8 43 10 68 16 22 19 37 14 67
-8 45 10 60 67 58 18 -1 44 4 56 11 22 12 24 19 26 133 1 20 7 43 14 49 31 32
3 79 -46 79 -11 0 -25 7 -32 15 -10 12 -8 16 13 24 29 11 46 59 25 72 -7 5
-23 9 -34 9 -33 0 -47 25 -41 71 7 51 15 59 33 34 12 -16 17 -17 23 -7 5 9 23
13 52 10 l43 -3 9 45 c4 25 6 86 3 135 -5 87 -4 93 34 189 22 54 51 111 65
128 23 27 30 49 27 89 -2 22 47 67 77 71 17 2 27 12 32 31 4 15 19 37 32 47
13 11 43 50 65 87 24 41 66 91 106 126 36 32 66 64 66 71 0 8 11 21 25 30 15
10 25 26 25 41 0 18 6 24 27 27 22 2 29 10 34 36 11 53 55 110 109 140 38 21
58 41 86 89 36 63 415 458 480 502 43 28 93 124 78 148 -6 10 -22 18 -36 18
-13 1 -34 11 -47 24 -23 23 -32 24 -98 3 -31 -10 -32 -10 -22 10 6 11 9 21 7
22 -21 16 -93 46 -109 46 -12 0 -39 -10 -61 -22 -40 -23 -41 -23 -52 -3 -40
70 -101 100 -135 66 -28 -28 -65 -26 -107 5 -34 26 -96 39 -139 28z m235 -384
c0 -13 -54 -40 -80 -40 -26 0 -60 17 -60 30 0 8 36 15 108 18 17 1 32 -2 32
-8z m-334 -35 c32 -8 67 -23 78 -34 38 -34 62 -41 127 -35 54 5 68 3 87 -13
19 -15 22 -24 16 -47 -6 -27 -9 -28 -52 -22 -25 3 -68 6 -97 6 -48 0 -53 2
-59 25 -6 25 -7 26 -88 20 -45 -3 -83 -7 -86 -10 -3 -3 -11 0 -19 6 -16 14
-17 91 -1 107 15 15 25 15 94 -3z m-276 -114 c0 -9 -11 -4 -30 14 -29 28 -30
30 -13 43 16 11 19 10 30 -15 7 -15 12 -34 13 -42z m522 -85 c14 -32 6 -51
-31 -70 -43 -23 -91 -11 -91 21 0 61 98 100 122 49z m-427 -56 c0 -31 -3 -36
-30 -40 -26 -4 -30 -9 -30 -35 0 -29 -2 -30 -63 -38 -74 -10 -92 -5 -92 24 0
28 49 105 75 118 11 6 47 9 80 8 l60 -2 0 -35z m190 21 c8 -13 -35 -41 -62
-41 -33 0 -28 14 10 33 38 19 44 20 52 8z m29 -203 c9 -33 8 -36 -14 -58 -38
-38 -80 -22 -80 31 0 25 -34 25 -60 -1 -15 -15 -20 -33 -20 -71 0 -49 -3 -53
-62 -115 -70 -73 -80 -72 -88 9 -5 52 -5 52 -40 51 -19 0 -47 -4 -62 -8 -33
-10 -37 7 -13 54 20 38 52 46 125 30 53 -11 62 -11 85 4 22 14 25 22 20 46 -6
27 -4 29 37 38 24 6 71 10 104 11 56 1 62 -1 68 -21z m-443 -326 c-20 -40 -66
-78 -75 -63 -3 4 -3 24 0 43 5 27 10 34 23 31 10 -2 28 5 42 15 13 11 25 19
27 17 2 -2 -6 -21 -17 -43z m-43 -118 c31 -6 31 -7 25 -53 l-6 -46 40 38 c43
41 54 44 73 22 23 -28 1 -61 -87 -134 -80 -67 -88 -71 -100 -55 -7 10 -13 42
-13 71 0 47 -3 55 -30 75 -38 28 -38 44 3 68 35 21 48 23 95 14z m-167 -286
c12 -5 12 -10 -3 -34 -31 -53 -50 -38 -62 51 l-7 50 28 -31 c16 -17 36 -33 44
-36z m-171 13 c0 -19 -20 -61 -29 -61 -13 0 -22 30 -16 51 6 19 45 27 45 10z
m343 -67 c43 -8 46 -17 12 -40 -29 -19 -70 -13 -79 12 -12 32 2 38 67 28z
m-373 -82 c0 -29 -24 -72 -41 -72 -15 0 -10 67 7 84 23 23 34 20 34 -12z m262
-47 c24 -54 -32 -155 -88 -155 -26 0 -26 1 -20 53 6 42 4 56 -8 67 -16 13 -21
42 -9 53 3 4 30 7 60 7 47 0 55 -3 65 -25z m-23 -299 c9 16 10 12 11 -23 0
-36 -3 -43 -19 -43 -21 0 -27 12 -35 80 l-6 45 19 -39 c17 -35 20 -37 30 -20z
m1100 14 c24 -12 47 -68 34 -81 -22 -22 -63 24 -63 71 0 23 4 24 29 10z
m-1315 -39 c9 -14 -22 -34 -41 -26 -17 6 -17 7 1 21 23 16 33 18 40 5z m87
-161 c4 -69 10 -138 14 -155 5 -23 1 -38 -17 -64 -38 -57 -43 -49 -40 66 3 75
-1 126 -13 174 -19 78 -10 113 28 107 21 -3 22 -9 28 -128z m829 67 c0 -31
-24 -62 -59 -77 -43 -17 -61 -7 -61 33 0 41 13 54 60 60 19 2 41 5 48 5 6 1
12 -8 12 -21z m-1180 5 c0 -17 -25 -32 -52 -32 -30 0 -35 9 -16 28 13 13 68
17 68 4z m1756 -50 c6 -12 20 -33 31 -45 27 -29 39 -54 47 -98 8 -48 -3 -56
-23 -16 -9 17 -33 41 -53 52 -28 15 -38 27 -43 55 -3 19 -9 46 -12 58 -5 20
-2 23 18 20 13 -1 29 -13 35 -26z m113 -23 c61 -56 70 -69 48 -69 -8 0 -23 12
-32 28 -10 15 -34 41 -54 59 -20 18 -32 32 -27 33 4 0 34 -23 65 -51z m-284
-60 c41 -55 48 -79 26 -79 -13 0 -101 110 -101 126 0 31 33 11 75 -47z m-1166
-53 c8 -10 9 -16 1 -21 -13 -8 -30 3 -30 21 0 18 14 18 29 0z m1359 -58 c4
-37 -16 -108 -31 -108 -13 0 -67 63 -67 79 0 6 12 22 28 36 34 32 66 30 70 -7z
m-1872 -53 c7 -17 -21 -65 -37 -65 -16 0 -22 30 -11 56 13 27 40 32 48 9z
m129 -59 c8 -40 2 -143 -15 -251 -18 -115 -18 -115 -44 -82 -12 15 -26 27 -30
27 -5 0 -6 -32 -3 -71 7 -81 2 -99 -25 -99 -15 0 -18 4 -13 18 26 63 36 204
21 298 -9 55 7 101 59 163 34 39 43 39 50 -3z m275 -123 c0 -49 -3 -63 -15
-63 -35 0 -48 88 -19 129 23 32 34 12 34 -66z m1514 41 c20 -19 21 -54 2 -79
-13 -18 -14 -18 -24 1 -6 11 -13 36 -17 57 -6 30 -4 37 8 37 9 0 23 -7 31 -16z
m36 -229 c-41 -130 -65 -117 -39 21 15 74 26 91 47 70 14 -14 13 -23 -8 -91z
m-1678 25 c5 0 2 -7 -6 -16 -18 -17 -36 -11 -36 13 0 10 6 13 16 9 9 -3 20 -6
26 -6z m1786 -70 c19 -18 20 -24 10 -46 l-12 -26 -17 38 c-27 61 -21 71 19 34z
m-1926 -121 c11 -20 18 -57 18 -89 0 -30 11 -95 24 -145 13 -49 22 -92 20 -94
-2 -2 -33 27 -69 65 -49 52 -68 82 -80 122 -13 45 -19 52 -40 52 -22 0 -24 2
-13 20 12 19 12 19 31 -1 23 -24 33 -19 40 23 8 52 26 90 40 86 6 -2 20 -20
29 -39z m108 -9 c0 -5 -8 -10 -17 -10 -15 0 -16 2 -3 10 19 12 20 12 20 0z
m1683 -110 c9 -102 0 -144 -31 -138 -14 3 -18 19 -25 83 -7 82 -3 120 15 143
22 26 33 3 41 -88z m-1512 -145 c16 -27 29 -54 29 -59 0 -18 -33 20 -56 65
-13 26 -33 50 -44 54 -12 4 -20 15 -20 28 0 19 2 19 31 -9 17 -16 44 -51 60
-79z m1419 -58 c0 -12 -11 -38 -23 -57 -25 -37 -57 -122 -57 -151 0 -19 -45
-59 -66 -59 -9 0 -14 11 -14 29 0 17 -5 33 -11 37 -8 4 -2 12 14 21 15 8 29
25 33 41 18 83 30 107 69 134 49 34 55 34 55 5z m-1158 -63 c42 -21 82 -64 60
-64 -12 0 -124 68 -142 87 -13 14 -12 14 10 8 14 -4 46 -18 72 -31z m-309 5
c46 -23 77 -48 77 -60 0 -5 -18 -18 -40 -29 l-40 -21 19 -27 c12 -16 21 -50
23 -84 4 -52 3 -58 -14 -58 -30 0 -73 26 -85 52 -22 42 -83 202 -83 215 0 24
22 13 61 -29 l39 -43 -7 53 c-3 28 -3 52 1 52 4 0 26 -10 49 -21z m1557 -84
c0 -8 -15 -22 -32 -31 -18 -9 -45 -28 -60 -42 -30 -28 -33 -26 -18 12 9 25 73
74 98 75 6 1 12 -6 12 -14z m-1300 -110 c16 -19 11 -19 -31 0 -33 14 -33 14
-8 15 15 0 32 -7 39 -15z m1000 -180 c0 -7 -109 -55 -124 -55 -6 1 18 14 54
30 76 34 70 31 70 25z m-530 -256 c19 -5 50 -18 69 -30 63 -38 -6 -52 -112
-22 -62 17 -78 33 -57 58 12 15 20 14 100 -6z"/>
<path d="M2282 6273 c-27 -35 -29 -40 -15 -60 9 -14 11 -23 5 -23 -6 0 -14 5
-17 10 -3 6 -10 10 -15 10 -10 0 -42 -59 -55 -99 -6 -20 -4 -23 9 -18 10 4 16
1 16 -8 0 -47 54 36 101 158 31 78 19 90 -29 30z"/>
<path d="M4876 6168 c-29 -45 -45 -96 -55 -179 -15 -115 -14 -334 1 -358 9
-15 8 -24 -5 -45 -18 -27 -23 -51 -8 -42 27 17 25 -87 -6 -389 -13 -133 -14
-170 -3 -219 8 -41 15 -55 21 -45 6 10 9 5 9 -16 0 -16 3 -41 6 -55 6 -24 6
-24 -8 -6 -14 17 -16 7 -27 -105 -6 -68 -10 -151 -9 -184 2 -33 0 -107 -4
-163 -5 -80 -4 -111 7 -135 8 -18 19 -51 25 -74 10 -41 13 -43 48 -43 20 0 46
-7 56 -15 26 -20 35 -19 29 3 -3 15 12 26 79 57 46 21 96 49 111 61 15 13 44
26 65 30 20 3 92 17 158 30 149 29 183 31 212 15 12 -6 27 -9 31 -6 5 3 30 0
56 -7 36 -10 50 -10 65 0 32 20 79 14 112 -13 22 -19 41 -25 74 -25 29 0 75
-13 127 -34 45 -19 93 -37 107 -40 48 -11 55 -21 43 -60 l-11 -36 47 6 c43 6
49 4 65 -20 9 -15 25 -30 35 -34 30 -12 108 -113 151 -194 l39 -77 -29 -6
c-36 -8 -30 -25 9 -25 43 0 59 -20 72 -90 6 -36 18 -81 26 -101 11 -28 12 -42
4 -57 -8 -15 -8 -28 0 -46 9 -18 9 -36 0 -70 -6 -25 -11 -61 -11 -80 0 -20
-13 -69 -30 -111 -34 -86 -37 -103 -15 -85 26 21 25 7 0 -49 -14 -29 -25 -62
-25 -73 0 -21 -59 -177 -86 -230 -8 -15 -33 -37 -56 -49 -23 -12 -64 -43 -92
-69 -37 -35 -62 -50 -92 -55 -23 -3 -69 -19 -103 -35 -51 -24 -61 -33 -61 -55
0 -32 -35 -67 -63 -63 -15 2 -26 14 -32 35 -6 18 -13 35 -17 38 -3 3 -62 1
-131 -5 -144 -13 -182 -7 -247 42 -89 68 -80 65 -102 35 -15 -20 -28 -27 -54
-27 -40 0 -52 19 -36 56 11 24 11 24 -38 24 -43 0 -50 -3 -50 -20 0 -13 -9
-22 -25 -26 -33 -8 -110 40 -101 62 3 9 6 23 6 31 0 13 10 15 56 11 52 -4 56
-3 65 19 23 60 13 86 -55 146 -36 31 -69 57 -75 57 -6 0 -22 -24 -36 -53 -14
-30 -36 -60 -50 -67 -23 -12 -31 -11 -71 8 -58 29 -82 28 -116 -5 -15 -14 -38
-27 -50 -29 -13 -1 -27 -3 -31 -3 -5 -1 -6 -23 -2 -50 6 -43 4 -51 -14 -60
-30 -16 -56 -13 -76 9 -11 12 -31 20 -52 20 -36 0 -42 14 -22 52 11 20 9 21
-21 14 -93 -18 -147 -96 -136 -192 8 -70 13 -81 42 -88 32 -8 30 -20 -3 -32
l-28 -9 55 -31 c67 -38 130 -104 165 -174 21 -42 30 -50 45 -45 13 4 20 2 20
-7 0 -8 16 -20 35 -27 19 -6 56 -27 82 -45 26 -18 54 -31 61 -28 7 2 24 -8 37
-22 13 -14 31 -26 39 -26 8 0 27 -19 43 -42 16 -24 38 -47 51 -53 12 -5 22
-13 22 -17 0 -14 27 -8 41 8 9 11 22 14 43 9 100 -20 158 -26 306 -30 472 -14
441 -14 495 7 28 11 96 35 152 53 56 19 119 46 141 60 34 23 49 26 103 24 58
-2 65 0 79 22 10 16 22 23 37 21 16 -2 26 5 37 25 18 35 86 100 148 142 45 30
88 75 88 92 0 5 -12 9 -26 9 l-26 0 21 34 c27 43 26 64 -1 94 -16 17 -19 26
-10 29 19 7 15 30 -20 115 -31 75 -31 79 -14 96 16 16 18 16 39 -10 21 -26 23
-26 56 -12 56 24 65 11 31 -43 -33 -52 -38 -97 -14 -124 14 -16 19 -16 38 -5
11 8 45 19 73 26 48 11 53 15 63 48 5 21 10 43 10 50 0 7 9 30 20 52 15 29 20
59 20 115 0 42 -4 75 -10 75 -5 0 -25 -35 -45 -77 -38 -83 -60 -113 -82 -113
-18 0 -16 17 7 50 11 15 31 69 46 119 34 120 29 149 -33 191 l-46 31 -55 -22
c-73 -30 -170 -121 -206 -194 -35 -71 -45 -145 -22 -164 9 -7 16 -24 16 -36 0
-12 16 -42 35 -66 31 -39 35 -51 35 -104 0 -74 -23 -116 -79 -145 -39 -20
-101 -27 -101 -12 0 4 17 32 37 62 63 93 56 185 -17 242 -77 59 -80 62 -74 86
4 12 18 29 33 36 36 19 125 188 158 301 15 50 28 92 30 95 2 2 13 -1 23 -8 11
-7 26 -12 35 -12 24 0 49 50 51 99 1 25 3 51 3 58 1 15 60 83 71 83 14 0 43
-52 43 -77 0 -13 -8 -29 -17 -36 -15 -11 -10 -17 43 -52 34 -21 63 -46 65 -54
3 -9 10 -56 17 -106 13 -104 24 -139 40 -129 18 11 4 148 -25 243 -27 87 -33
141 -17 141 20 0 41 -46 41 -87 0 -34 4 -43 22 -49 14 -4 25 -1 33 10 16 21
38 151 33 196 l-3 35 -26 -38 -27 -38 -11 32 c-6 18 -11 57 -11 89 0 143 -89
271 -148 212 -17 -17 -19 -30 -15 -88 5 -59 9 -72 32 -90 22 -19 24 -26 16
-49 -22 -60 -71 -58 -89 4 -7 24 -5 41 7 67 22 46 21 96 -1 124 l-19 23 -17
-24 c-20 -28 -31 -72 -42 -154 -6 -53 -8 -56 -15 -30 -3 17 -7 89 -8 162 l-1
131 -50 117 c-27 64 -50 123 -50 131 0 8 9 14 20 14 18 0 20 4 14 41 l-7 41
27 -17 c30 -20 50 -54 61 -104 5 -21 25 -51 56 -81 38 -37 49 -54 49 -79 l0
-31 53 29 c41 24 56 39 69 73 27 68 24 86 -14 90 -30 3 -34 8 -53 63 -28 80
-98 183 -131 191 -14 4 -36 2 -50 -5 -20 -9 -24 -18 -24 -51 0 -22 -4 -40 -9
-40 -17 0 -21 32 -10 71 9 29 9 45 0 67 -9 22 -10 44 -2 88 6 32 11 63 11 70
0 17 -88 113 -119 128 -83 42 -171 39 -171 -6 0 -34 95 -120 163 -147 65 -27
73 -41 22 -41 -40 0 -40 -1 -20 -41 11 -19 26 -32 45 -36 24 -4 30 -11 30 -32
0 -14 -4 -32 -9 -40 -7 -11 -11 -10 -20 7 -13 24 -67 42 -123 42 -27 0 -47 8
-70 29 -32 29 -33 31 -33 116 -1 78 -3 89 -23 105 -12 10 -27 20 -33 22 -8 3
-8 14 -1 39 9 33 7 39 -25 78 -20 23 -53 51 -74 62 -28 14 -46 34 -64 69 -28
55 -31 56 -59 35 -45 -34 -73 -5 -45 47 13 24 9 29 -19 21 -17 -4 -20 -9 -12
-18 8 -10 6 -24 -9 -52 -35 -69 -44 -76 -72 -63 -21 10 -33 8 -72 -10 -55 -26
-63 -45 -49 -119 6 -31 6 -51 0 -51 -28 0 -98 55 -98 77 0 7 25 40 55 73 64
70 70 101 28 151 -35 41 -79 60 -108 47 -17 -8 -31 -3 -70 21 -58 37 -113 41
-168 11 -49 -26 -69 -25 -123 6 -32 19 -44 22 -44 12 0 -8 5 -19 12 -26 13
-13 -5 -42 -26 -42 -17 0 -106 174 -106 208 0 16 14 61 32 98 29 62 32 78 32
159 0 50 -4 116 -8 147 l-7 58 -29 -15 c-34 -18 -64 -19 -91 -4 -16 8 -25 7
-38 -5 -25 -23 -38 -20 -55 12 -21 40 -49 216 -40 254 3 18 16 50 27 71 19 38
19 42 4 134 -17 106 -37 138 -94 149 -18 3 -33 12 -33 20 0 24 -19 25 -34 2z
m288 -815 c25 10 28 -10 6 -52 -12 -25 -20 -60 -20 -93 -1 -65 -18 -91 -53
-83 -22 6 -26 3 -32 -23 -7 -33 -41 -70 -52 -58 -4 4 -11 51 -14 105 -4 58
-13 111 -23 129 -21 41 -20 58 4 82 28 28 35 25 54 -23 9 -24 28 -54 41 -67
l25 -23 0 73 0 73 24 -23 c14 -12 32 -20 40 -17z m-309 -390 c-4 -19 -9 -23
-17 -15 -9 9 -8 19 2 39 15 32 25 16 15 -24z m306 -124 c12 -22 0 -39 -29 -39
-7 0 -19 -17 -28 -39 -11 -29 -27 -45 -65 -66 -39 -21 -54 -24 -62 -16 -23 23
-5 202 25 238 12 15 143 -49 159 -78z m19 76 c28 -14 50 -58 36 -72 -5 -6 -86
42 -86 51 0 9 12 36 17 36 2 0 17 -7 33 -15z m463 -121 c31 -3 71 -1 87 5 27
9 30 8 30 -10 0 -12 -14 -28 -35 -40 -40 -24 -41 -26 -19 -57 l15 -22 -66 0
c-37 0 -75 -4 -85 -10 -10 -5 -35 -37 -56 -71 -39 -65 -85 -95 -149 -99 -68
-5 -74 14 -19 56 42 32 64 71 64 114 0 17 7 42 16 55 9 13 13 29 10 34 -4 6
-4 22 0 37 7 29 -13 28 207 8z m346 -133 c60 -47 99 -62 188 -71 47 -5 88 -11
91 -14 2 -3 -3 -17 -12 -30 -16 -26 -86 -52 -112 -42 -10 4 -14 -3 -14 -25 l0
-31 -52 7 c-57 8 -133 46 -148 75 -20 38 -7 160 16 160 4 0 23 -13 43 -29z
m-784 -11 c-3 -5 -11 -10 -17 -10 -6 0 -34 -14 -61 -32 l-50 -32 31 -8 32 -9
-19 -37 c-10 -20 -26 -54 -35 -74 -13 -32 -21 -38 -45 -38 -17 0 -33 5 -37 11
-3 6 -15 9 -25 6 -16 -4 -18 -1 -13 21 9 38 40 96 58 111 9 8 16 24 16 37 0
28 8 34 79 49 73 16 94 17 86 5z m1153 -183 c17 -20 25 -89 14 -117 l-10 -25
-16 37 c-11 25 -21 36 -30 32 -42 -16 -77 53 -38 75 24 15 68 13 80 -2z m223
-268 c21 -5 39 -15 41 -22 8 -26 2 -152 -7 -151 -18 1 -125 148 -125 172 0 24
-1 24 91 1z m164 -1289 c-8 -24 20 -27 49 -5 11 8 31 15 44 15 35 0 25 -32
-12 -36 -16 -2 -43 -17 -60 -33 -44 -43 -60 -41 -52 7 10 56 16 72 27 72 6 0
7 -9 4 -20z m-1822 -341 c41 -21 77 -63 83 -97 5 -26 17 -41 53 -63 25 -16 52
-41 59 -54 16 -31 1 -33 -35 -5 -17 13 -33 18 -49 14 -20 -5 -24 -2 -24 15 0
11 -12 45 -27 76 -25 50 -32 56 -78 71 -61 20 -61 20 -45 39 15 18 33 19 63 4z
m1534 -104 c17 -6 -15 -63 -39 -71 -10 -3 -18 -12 -18 -19 0 -11 8 -13 30 -8
25 5 29 3 24 -11 -8 -21 -36 -36 -68 -36 -37 0 -57 -10 -67 -36 -5 -14 -17
-24 -28 -24 -12 0 -44 -32 -89 -89 -69 -87 -71 -89 -140 -110 -88 -26 -126
-27 -152 -1 -37 37 -26 46 54 46 88 -1 107 11 131 84 20 59 27 66 88 74 72 11
54 30 -33 36 l-73 5 -23 42 c-21 40 -21 43 -4 58 17 15 20 15 39 -4 17 -17 25
-18 58 -9 21 5 44 15 51 20 7 6 34 8 65 5 l53 -7 24 44 23 44 41 -14 c23 -8
47 -16 53 -19z m-1555 17 c21 -9 78 -91 78 -114 0 -10 -11 -25 -24 -33 -28
-19 -44 -13 -108 37 -45 36 -55 61 -34 93 17 25 51 32 88 17z m432 -81 c4 -5
-12 -12 -34 -16 -45 -8 -48 -23 -9 -42 33 -17 62 -16 146 6 51 13 83 16 110
11 104 -22 162 -45 211 -82 30 -22 55 -38 57 -36 3 2 -10 21 -27 42 -39 47
-24 62 36 37 43 -19 61 -56 35 -72 -10 -6 -9 -12 5 -28 11 -12 25 -21 33 -21
39 0 -9 -43 -65 -60 -26 -7 -32 -5 -37 11 -8 26 -31 36 -94 45 -29 4 -58 13
-64 21 -33 39 -39 43 -62 37 -16 -4 -44 4 -81 22 -49 24 -74 29 -178 34 -115
7 -156 14 -156 29 0 3 9 21 20 39 19 31 22 32 84 32 36 0 67 -4 70 -9z m176
-186 c74 -19 138 -39 143 -44 11 -11 -159 -51 -244 -58 -76 -6 -163 17 -179
47 -16 29 -12 68 8 79 34 20 135 11 272 -24z"/>
<path d="M5020 5171 c0 -11 4 -22 8 -25 14 -9 35 12 29 28 -9 23 -37 20 -37
-3z"/>
<path d="M5537 6176 c-4 -11 -16 -13 -39 -10 -30 5 -35 3 -50 -30 -10 -19 -29
-43 -43 -52 -39 -26 -18 -37 87 -43 92 -6 93 -6 96 -33 3 -27 2 -28 -42 -28
-30 0 -46 -4 -47 -12 -1 -7 -3 -26 -5 -43 -2 -16 -7 -59 -10 -95 l-6 -65 21
19 c11 10 27 16 35 13 8 -3 26 3 40 14 l26 20 -1 -68 c0 -37 -4 -89 -8 -115
-4 -27 -4 -48 0 -48 4 0 3 -16 -2 -35 -10 -37 -4 -75 11 -75 13 0 18 11 29 59
7 32 6 45 -5 56 -19 18 -7 44 23 51 51 13 187 -3 253 -30 36 -14 81 -29 100
-32 19 -4 103 -33 185 -64 83 -32 170 -61 195 -64 25 -4 95 -20 155 -36 247
-64 258 -66 326 -50 37 9 64 24 95 55 39 37 44 47 44 86 0 25 7 55 16 68 16
22 16 25 0 51 -9 16 -16 37 -16 48 0 26 58 76 104 92 44 14 51 26 87 153 16
55 40 117 54 138 14 21 25 45 25 53 0 28 -32 35 -80 19 -86 -29 -128 -94 -116
-180 10 -74 -28 -131 -97 -149 -20 -4 -32 0 -51 20 -36 35 -33 69 6 100 28 21
33 33 41 93 15 124 19 114 -48 141 -50 20 -71 23 -125 19 -56 -4 -84 -15 -200
-76 -74 -39 -144 -71 -156 -71 -25 0 -45 21 -68 72 -21 43 -59 58 -86 33 -12
-11 -26 -14 -39 -10 -39 12 -264 -21 -300 -44 -24 -15 5 -44 30 -30 16 8 19 6
19 -10 0 -23 37 -46 93 -56 40 -8 43 -5 26 27 -10 19 -9 20 23 13 18 -4 48
-16 65 -27 20 -12 62 -22 108 -27 57 -5 80 -12 98 -29 l24 -22 11 25 c10 21
17 25 34 19 12 -4 43 -8 68 -9 25 -2 49 -4 53 -4 4 -1 3 -10 -3 -21 -9 -17 -8
-21 7 -26 44 -14 65 -30 79 -60 9 -18 31 -45 50 -59 51 -39 44 -49 -28 -41
-99 11 -259 21 -264 17 -2 -2 4 -10 14 -17 15 -12 14 -13 -12 -14 -22 0 -46
17 -113 83 l-84 82 -88 3 c-67 3 -96 0 -119 -12 -17 -9 -39 -16 -48 -16 -18 0
-184 123 -197 146 -14 25 3 54 44 74 44 23 46 29 20 61 -16 20 -22 22 -43 12
-15 -7 -30 -8 -39 -2 -19 12 -92 11 -124 -1 -20 -8 -32 -6 -48 5 -27 19 -63
19 -70 1z m1397 -484 c14 -49 -7 -112 -38 -112 -53 0 -114 79 -96 125 9 24 13
26 67 23 55 -3 58 -4 67 -36z"/>
<path d="M5166 6018 c-9 -29 -23 -72 -29 -95 -7 -23 -20 -50 -29 -60 -21 -24
-53 -152 -41 -164 16 -16 61 28 65 64 4 43 33 49 41 8 6 -29 7 -30 60 -24 63
6 81 -8 42 -33 -22 -15 -55 -61 -55 -79 0 -3 13 -5 29 -5 17 0 42 -11 59 -25
28 -23 30 -24 45 -7 27 30 47 89 47 139 0 33 -14 81 -43 153 -42 104 -43 105
-102 142 -33 20 -62 37 -65 37 -3 1 -14 -23 -24 -51z"/>
<path d="M6515 5920 c-4 -6 5 -10 19 -10 14 0 26 5 26 10 0 6 -9 10 -19 10
-11 0 -23 -4 -26 -10z"/>
<path d="M5437 5632 c-56 -57 -77 -102 -63 -138 5 -13 20 -3 77 47 86 76 100
100 74 129 -10 11 -21 20 -24 20 -4 0 -32 -26 -64 -58z"/>
<path d="M1870 5360 c-20 -12 -5 -24 16 -12 9 5 12 12 7 15 -5 3 -15 2 -23 -3z"/>
<path d="M2180 4719 c0 -18 2 -19 15 -9 8 7 15 16 15 21 0 5 -7 9 -15 9 -9 0
-15 -9 -15 -21z"/>
<path d="M2105 4510 c-4 -11 -18 -31 -32 -44 -18 -17 -24 -31 -21 -56 5 -53
21 -45 45 22 12 35 25 71 28 81 4 9 3 17 -3 17 -6 0 -14 -9 -17 -20z"/>
<path d="M1472 4402 c-20 -89 9 -124 37 -45 12 33 12 47 3 67 -17 38 -27 32
-40 -22z"/>
<path d="M1985 4091 c-6 -21 3 -51 16 -51 5 0 9 16 9 35 0 37 -15 47 -25 16z"/>
<path d="M7120 3462 c0 -21 13 -42 26 -42 10 0 11 6 5 22 -8 23 -31 37 -31 20z"/>
</g>
</svg>
